<?xml version="1.0" standalone="no"?><!DOCTYPE svg PUBLIC "-//W3C//DTD SVG 1.1//EN" "http://www.w3.org/Graphics/SVG/1.1/DTD/svg11.dtd" [<!ENTITY nbsp "&#160;">]><svg id="open_icon" xmlns="http://www.w3.org/2000/svg" viewBox="0 0 256 256" version="1.1" xmlns:xlink="http://www.w3.org/1999/xlink" width="256" height="256"><title>Einzelarbeit</title><path fill="#DC6027" d="M158.55,123.81h-3a2,2,0,0,1,0-4h3a2,2,0,0,1,0,4Z"></path><path fill="#DC6027" d="M174.55,123.81h-3a2,2,0,0,1,0-4h3a2,2,0,0,1,0,4Z"></path><path fill="#DC6027" d="M164.67,138a9.91,9.91,0,0,1-5.49-1.65A2,2,0,1,1,161.4,133a6,6,0,0,0,6.54,0,2,2,0,0,1,2.21,3.33A9.81,9.81,0,0,1,164.67,138Z"></path><circle fill="#DC6027" cx="144.55" cy="189.35" r="3.91"></circle><path fill="#DC6027" d="M235.58,207.28h-38a13.9,13.9,0,0,0,4-9.72,1.49,1.49,0,0,0,0-.21V169.48a10.94,10.94,0,0,0-1.21-5.94c-1.37-2.29-5.2-3.71-6.1-4l-15-6-.19-.06a2.79,2.79,0,0,1-1.12-.76,2.45,2.45,0,0,1-.43-1.32v-5c0-.07,0-.14,0-.21a22.7,22.7,0,0,0,7.44-8.22h2.81A12.65,12.65,0,0,0,190.7,113a24.4,24.4,0,0,0-3.48-5.81A22,22,0,0,0,172,86.77a2,2,0,0,0-1.75.25L167,89.28l-7.56-5.4a2,2,0,0,0-2.08-.15,2,2,0,0,0-1.08,1.77l0,5.11-1.74-.76a2,2,0,0,0-1.84.11,23,23,0,0,0-8.81,9.58,2.14,2.14,0,0,0-.2.4,21.75,21.75,0,0,0-1.51,8v.29a24.79,24.79,0,0,0-2.7,4.63,12.65,12.65,0,0,0,2.95,24.94h2.71a22.77,22.77,0,0,0,7.44,8.33,2.66,2.66,0,0,0,0,.28v5a2.58,2.58,0,0,1-.43,1.31,2.81,2.81,0,0,1-1.12.76l-.19.06-14.95,6c-.9.3-4.73,1.73-6.1,4a9.36,9.36,0,0,0-1.16,3.72H118.05a2,2,0,0,0-2,2v38H71.28a12.9,12.9,0,0,0,2.08-5.48h1.46a6.8,6.8,0,0,0,0-13.59H73.49v-2.28a2,2,0,0,0-2-2l-21.83-.09a2.14,2.14,0,0,0-1.42.58,2,2,0,0,0-.59,1.42v14.28a12.78,12.78,0,0,0,2.2,7.16H20.42a4,4,0,1,0,0,8H235.58a4,4,0,0,0,0-8Zm-49-90.1v-.52h1.1a13.47,13.47,0,0,1,.47,3.29,2,2,0,0,0,2,2h0a2,2,0,0,0,2-2,17.35,17.35,0,0,0-.16-2h0a.34.34,0,0,0,0-.1,8.68,8.68,0,0,1,4.35,7.5.43.43,0,0,0,0,.05s0,0,0,0a8.67,8.67,0,0,1-8.64,8.65h-1.19l.07-16.88Zm-43.08-.61-.07,17.31h-1.12a8.66,8.66,0,0,1-8.63-8.65v-.09a8.67,8.67,0,0,1,4.2-7.41s0,.07,0,.1h0a15.64,15.64,0,0,0-.23,2.62,2,2,0,0,0,4,0,13.57,13.57,0,0,1,.62-3.92h1.24v.09Zm-70,75.64h1.32a2.8,2.8,0,0,1,0,5.59H73.49Zm-4,7.9a8.43,8.43,0,0,1-.06,1c0,.1,0,.2-.05.3s-.08.46-.13.69a2.81,2.81,0,0,1-.08.31c-.06.23-.13.45-.21.67l-.09.26c-.11.26-.22.52-.35.77l0,.1a9.27,9.27,0,0,1-1.85,2.41h0a8.87,8.87,0,0,1-12.07,0h0a9.27,9.27,0,0,1-1.85-2.41l0-.1c-.12-.25-.24-.51-.35-.77l-.09-.25c-.08-.22-.15-.45-.21-.68s-.06-.2-.08-.3-.1-.47-.13-.7,0-.2-.05-.3a8.31,8.31,0,0,1-.06-1V187.85l17.83.07Zm77.74-98.45a.2.2,0,0,0,0-.08,19,19,0,0,1,6.55-7.64l3.56,1.56a2,2,0,0,0,2.8-1.82l0-4.3,5.55,4a2,2,0,0,0,2.29,0l3.61-2.47a18,18,0,0,1,10.81,11.63,28.59,28.59,0,0,0-17.53-6,28.26,28.26,0,0,0-18.23,6.8C146.86,102.76,147,102.21,147.23,101.66Zm-1.13,10.91v-3a24.26,24.26,0,0,1,37.14-.88V111a27,27,0,0,0-3-3.17,2.06,2.06,0,0,0-1.53-.53,2,2,0,0,0-1.42.78l-4.09,5.34-18-7.42a2,2,0,0,0-1.79.14,22.4,22.4,0,0,0-7,6.62A2.87,2.87,0,0,0,146.1,112.57Zm1.37,20.65.06-14.85a1.87,1.87,0,0,0,.78-.86,18.41,18.41,0,0,1,6.4-7.45l18.44,7.6a2,2,0,0,0,2.35-.63l3.63-4.74a16.79,16.79,0,0,1,3.49,5.58l-.06,15.52a18.49,18.49,0,0,1-35.09-.17Zm26.15,19.21s-.05.1-.07.16c-1.05,3.43-4.59,5.82-8.61,5.82s-7.55-2.38-8.61-5.79a6.61,6.61,0,0,0,.14-1.22v-3.14a22.35,22.35,0,0,0,17.05,0v3.09A7.1,7.1,0,0,0,173.62,152.43Zm-5.57,54.84h-48v-36h48Zm29.48-9.57a10,10,0,0,1-7.82,9.58H172.05V197h13.27a2,2,0,0,0,2-2v-19a2,2,0,0,0-4,0v17H172.05V169.27a2,2,0,0,0-2-2H132.56a4.91,4.91,0,0,1,.55-1.67c.42-.7,2.44-1.77,4-2.3l.1,0,14.93-6a7.59,7.59,0,0,0,1.62-.8,13.51,13.51,0,0,0,22.39-.06,7.06,7.06,0,0,0,1.69.86l14.93,6,.11,0c1.55.53,3.58,1.6,4,2.3a7.23,7.23,0,0,1,.65,3.62,1.09,1.09,0,0,0,0,.18v28.17S197.53,197.65,197.53,197.7Z"></path></svg>