<?xml version="1.0" standalone="no"?><!DOCTYPE svg PUBLIC "-//W3C//DTD SVG 1.1//EN" "http://www.w3.org/Graphics/SVG/1.1/DTD/svg11.dtd" [<!ENTITY nbsp "&#160;">]><svg id="open_icon" xmlns="http://www.w3.org/2000/svg" viewBox="0 0 256 256" version="1.1" xmlns:xlink="http://www.w3.org/1999/xlink" width="256" height="256"><title>Netzwerk</title><g fill="#DC6027"><path d="M235.3,207.3h-80.5c0.8-3.1,0.9-6.4,0.4-9.6c0,0,0,0,0,0c0-0.1,0-0.2,0-0.2c-0.6-3-1.7-5.7-3.3-8.3c-0.5-0.7-1-1.4-1.5-2.1 l38.2-37.8c0.2,0.1,0.3,0.2,0.5,0.4c0.1,0,0.1,0.1,0.2,0.1c2.5,1.7,5.5,2.7,8.6,2.7c0.8,0,1.7-0.1,2.5-0.2c0.1,0,0.1,0,0.1,0 c0,0,0,0,0.1,0c1.9-0.3,3.7-1.1,5.4-2.1c1.7-1.1,3.1-2.4,4.2-4c0,0,0,0,0-0.1c0,0,0,0,0-0.1c2.2-3.2,3.1-7.2,2.5-11.1 c0-0.1,0-0.1,0-0.2c-0.4-1.9-1.1-3.7-2.1-5.4c-1.1-1.6-2.4-3-3.9-4.1c-0.1,0-0.1-0.1-0.2-0.1c-2.2-1.6-4.9-2.4-7.6-2.6L196,94.7 c1.7-0.4,3.3-1,4.8-2c1.7-1.1,3.1-2.4,4.2-4c0,0,0,0,0-0.1c0,0,0,0,0.1-0.1c2.2-3.2,3.1-7.3,2.5-11.1c0,0,0,0,0,0 c0-0.1,0-0.1,0-0.2c-0.4-1.9-1.1-3.7-2.1-5.4c-1.1-1.6-2.4-3-3.9-4.1c-0.1,0-0.1-0.1-0.2-0.1c-3.2-2.2-7.2-3.1-11.1-2.5 c-0.1,0-0.1,0-0.2,0c-1.9,0.4-3.7,1.1-5.4,2.1c-1.6,1.1-3,2.4-4.2,4c0,0-0.1,0.1-0.1,0.1c-0.9,1.3-1.5,2.7-2,4.1l-27.6-4.7 c0-1.2,0-2.4-0.2-3.6c0-0.1,0-0.1,0-0.2c-0.4-2.3-1.3-4.5-2.6-6.6c-1.3-2-2.9-3.7-4.8-5c-0.1,0-0.1-0.1-0.2-0.2 c-3.9-2.7-8.8-3.8-13.5-3c-0.1,0-0.1,0-0.2,0c-2.3,0.4-4.6,1.3-6.6,2.6c-2,1.3-3.7,2.9-5.1,4.9c0,0.1-0.1,0.1-0.1,0.2 c-2.7,3.9-3.8,8.8-3,13.5c0,0,0,0.1,0,0.2c0.1,0.5,0.2,1,0.3,1.5l-26.8,9.7c-0.4-0.9-0.9-1.8-1.5-2.7c-1.6-2.5-3.7-4.7-6.1-6.4 c-0.1-0.1-0.1-0.1-0.3-0.2c-4.9-3.4-11.2-4.8-17.1-3.8c0,0,0,0,0,0c-0.1,0-0.2,0-0.2,0c-3,0.6-5.7,1.7-8.3,3.3 c-2.6,1.6-4.7,3.7-6.4,6.2c0,0.1-0.1,0.1-0.1,0.2c-3.4,4.9-4.8,11.2-3.8,17.1c0,0,0,0.2,0.1,0.2c0.5,3,1.6,5.7,3.3,8.3 c1.6,2.5,3.7,4.7,6.1,6.4c0.1,0.1,0.2,0.1,0.3,0.2c3.9,2.7,8.5,4.1,13.2,4.1c1.3,0,2.6-0.1,3.9-0.3c0.1,0,0.1,0,0.2,0 c0,0,0.1,0,0.1,0c2.1-0.4,4.1-1.1,6.1-2l11.9,19.6L74,158.6c-2.9-1.5-6.3-2.1-9.6-1.5c-0.1,0-0.1,0-0.2,0c-1.9,0.4-3.7,1.1-5.4,2.1 c-1.6,1.1-3,2.4-4.2,4c0,0-0.1,0.1-0.1,0.1c-2.2,3.2-3.1,7.3-2.5,11.1c0,0,0,0.1,0,0.1c0.3,1.9,1.1,3.7,2.1,5.4 c1.1,1.6,2.4,3,3.9,4.1c0.1,0,0.1,0.1,0.2,0.1C60.9,186,64,187,67,187c0.8,0,1.7-0.1,2.5-0.2c0.1,0,0.1,0,0.1,0c0,0,0,0,0.1,0 c1.9-0.3,3.7-1.1,5.4-2.1c1.6-1,2.9-2.3,4-3.8l31.3,13.7c-1.1,3.5-1.4,7.3-0.8,11c0,0,0,0.2,0.1,0.2c0.1,0.5,0.2,1,0.3,1.5H20.2 c-2.2,0-4,1.8-4,4s1.8,4,4,4h93.6c1.5,2,3.2,3.8,5.2,5.2c0.1,0.1,0.1,0.1,0.2,0.2c3.9,2.7,8.5,4.1,13.2,4.1c1.3,0,2.6-0.1,3.9-0.3 c0.1,0,0.1,0,0.2,0c0,0,0,0,0.1,0c2.9-0.5,5.7-1.6,8.2-3.2c2.4-1.5,4.5-3.5,6.2-5.8h84.3c2.2,0,4-1.8,4-4S237.5,207.3,235.3,207.3z M147.6,184.2c-0.6-0.5-1.2-1-1.8-1.4c-0.1-0.1-0.2-0.1-0.3-0.2c-3.3-2.3-7.2-3.6-11.2-4v-26.3c1.1,0,2.2-0.1,3.3-0.3 c0.1,0,0.1,0,0.2,0c0,0,0.1,0,0.1,0c2.9-0.5,5.7-1.6,8.2-3.2c2.5-1.6,4.7-3.7,6.5-6.1c0,0,0-0.1,0.1-0.1c0,0,0.1-0.1,0.1-0.1 c1.9-2.8,3.2-6,3.7-9.4l26.2,4.1c0,1,0,1.9,0.2,2.9c0,0,0,0.1,0,0.1c0.3,1.9,1.1,3.7,2.1,5.4c0.2,0.3,0.4,0.6,0.7,0.9L147.6,184.2z M111,133.1c0,0,0,0.2,0.1,0.2c0.5,3,1.6,5.7,3.3,8.3c1.6,2.5,3.7,4.7,6.1,6.4c0.1,0.1,0.2,0.1,0.2,0.2c2.9,2,6.3,3.3,9.7,3.8v26.6 c-0.6,0.1-1.3,0.1-1.9,0.2c-0.1,0-0.2,0-0.2,0c-2.2,0.4-4.3,1.1-6.3,2.1l-28.1-46.1l12-18.8l7,3.5 C110.9,123.8,110.2,128.5,111,133.1z M123,144.9c-0.1,0-0.1-0.1-0.2-0.1c-2-1.4-3.7-3.2-5.1-5.3c-1.3-2.1-2.2-4.4-2.7-6.9 c0-0.1,0-0.1-0.1-0.3c-0.8-4.8,0.3-9.9,3.1-14c0.1-0.1,0.1-0.2,0.2-0.2c1.4-2,3.2-3.7,5.3-5.1c2.1-1.3,4.3-2.2,6.7-2.7 c0.1,0,0.3,0,0.4-0.1c4.9-0.8,10,0.3,14,3.1c0.1,0,0.1,0.1,0.2,0.1c2,1.4,3.7,3.2,5.1,5.3c1.3,2.1,2.2,4.3,2.7,6.7 c0,0.2,0,0.3,0.1,0.3c0.8,4.9-0.3,10-3.1,14c-0.1,0.1-0.1,0.2-0.2,0.3c-1.4,2-3.2,3.7-5.3,5c-2.1,1.3-4.4,2.2-6.8,2.7 c-0.1,0-0.1,0-0.1,0c0,0-0.1,0-0.1,0C132.1,148.9,127,147.7,123,144.9z M152.7,142.5C152.7,142.5,152.7,142.5,152.7,142.5l-1.5-1.3 L152.7,142.5z M185.5,128.8c0,0-0.1,0.1-0.1,0.1c-0.9,1.3-1.6,2.8-2,4.3l-26.5-4.2c0-1.2-0.1-2.5-0.3-3.7c0,0,0,0,0,0 c0-0.1,0-0.2,0-0.2c-0.6-3-1.6-5.7-3.3-8.3c-1.6-2.5-3.7-4.7-6.1-6.4c-0.1-0.1-0.1-0.1-0.3-0.2c-4.9-3.4-11.2-4.8-17.1-3.8 c0,0,0,0,0,0c-0.1,0-0.2,0-0.2,0c-3,0.6-5.7,1.7-8.3,3.3c-2.6,1.6-4.7,3.7-6.5,6.2c0,0-0.1,0.1-0.1,0.1c0,0,0,0.1-0.1,0.1l-6.7-3.4 l16.5-25.9c2.5,1.2,5.2,1.8,7.9,1.8c1,0,2.1-0.1,3.1-0.3c0.1,0,0.1,0,0.2,0c0,0,0,0,0.1,0c2.3-0.4,4.5-1.3,6.5-2.6 c0.4-0.3,0.8-0.5,1.2-0.8l42.5,43.3C185.8,128.4,185.7,128.6,185.5,128.8z M204.1,128.3c0,0,0.1,0.1,0.1,0.1 c1.2,0.8,2.2,1.8,2.9,3.1c0.8,1.2,1.3,2.5,1.5,3.9c0,0.1,0,0.2,0,0.2c0.5,2.8-0.2,5.8-1.8,8.1c-0.1,0.1-0.1,0.1-0.2,0.2 c-0.8,1.1-1.8,2.1-3,2.9c-1.2,0.8-2.6,1.3-4,1.6c-0.1,0-0.1,0-0.1,0c0,0,0,0-0.1,0c-2.8,0.5-5.7-0.2-8.1-1.8c0,0-0.1-0.1-0.1-0.1 c-1.2-0.8-2.1-1.8-2.9-3.1c-0.8-1.2-1.3-2.6-1.6-4l0-0.1c-0.5-2.8,0.2-5.7,1.8-8.1c0.1-0.1,0.1-0.1,0.1-0.1 c0.8-1.2,1.9-2.2,3.1-2.9c1.2-0.8,2.5-1.3,3.8-1.5c0.1,0,0.2,0,0.3,0C198.8,126.1,201.7,126.7,204.1,128.3z M183.5,73.8 c0.1-0.1,0.1-0.1,0.1-0.2c0.8-1.2,1.9-2.2,3.1-2.9c1.2-0.8,2.5-1.3,3.8-1.5c0.1,0,0.2,0,0.3,0c2.8-0.5,5.8,0.2,8.1,1.8 c0.1,0,0.1,0.1,0.2,0.1c1.2,0.8,2.2,1.8,2.9,3.1c0.8,1.2,1.3,2.5,1.5,3.9c0,0.1,0,0.2,0,0.3c0.5,2.8-0.2,5.7-1.8,8.1 c0,0.1-0.1,0.1-0.2,0.2c-0.8,1.1-1.8,2.1-3,2.9c-1.2,0.8-2.6,1.3-4,1.6c-0.1,0-0.1,0-0.1,0c0,0,0,0-0.1,0c-2.8,0.5-5.7-0.2-8.1-1.8 c0,0-0.1-0.1-0.1-0.1c-1.2-0.8-2.1-1.8-2.9-3.1c-0.8-1.2-1.3-2.6-1.6-4l0-0.1C181.3,79,182,76.1,183.5,73.8z M147.4,80.8 C147.4,80.8,147.5,80.8,147.4,80.8c1.3-1.9,2.2-3.9,2.7-6l27.5,4.7c0,1,0,2,0.2,3c0,0,0,0.1,0,0.1c0.3,1.9,1.1,3.7,2.1,5.4 c1.1,1.6,2.4,3,3.9,4.1c0.1,0,0.1,0.1,0.2,0.1c2.3,1.6,5.1,2.5,7.9,2.6l2.7,27.7c-1.8,0.4-3.5,1.1-5.1,2.1 c-0.3,0.2-0.6,0.4-0.9,0.6l-42.4-43.2C146.7,81.8,147.1,81.3,147.4,80.8C147.4,80.9,147.4,80.8,147.4,80.8z M147.4,80.9l-1.5-1.3 L147.4,80.9C147.4,80.9,147.4,80.9,147.4,80.9z M120.6,62.2c0.1-0.1,0.1-0.1,0.1-0.2c1.1-1.5,2.4-2.8,4-3.8c1.5-1,3.2-1.7,5-2 c0.1,0,0.2,0,0.3,0c3.7-0.6,7.5,0.2,10.5,2.3c0.1,0.1,0.1,0.1,0.2,0.1c1.5,1.1,2.8,2.4,3.8,4c1,1.5,1.7,3.2,2,5c0,0.1,0,0.2,0,0.3 c0.6,3.6-0.2,7.5-2.3,10.5c-0.1,0.1-0.1,0.2-0.2,0.3c-1.1,1.5-2.4,2.7-3.9,3.7c-1.6,1-3.3,1.7-5.1,2c-0.1,0-0.1,0-0.1,0 c0,0,0,0-0.1,0c-3.7,0.6-7.5-0.2-10.5-2.3c-0.1-0.1-0.1-0.1-0.2-0.1c-1.5-1.1-2.8-2.4-3.8-4c-1-1.6-1.7-3.3-2-5.2 c0-0.1,0-0.1,0-0.2C117.7,69,118.5,65.2,120.6,62.2z M89.8,90.7C89.8,90.7,89.8,90.6,89.8,90.7c0-0.1,0-0.2,0-0.3 c-0.1-0.6-0.3-1.2-0.4-1.8l26.9-9.8c0.2,0.5,0.5,0.9,0.8,1.3c1.1,1.8,2.6,3.3,4.2,4.6L104.4,111L88.5,103 C90,99.1,90.5,94.8,89.8,90.7z M77.3,110.7c-2.1,1.3-4.4,2.2-6.8,2.7c-0.1,0-0.1,0-0.1,0c0,0-0.1,0-0.1,0c-4.9,0.8-10-0.3-14-3.1 c-0.1-0.1-0.1-0.1-0.2-0.1c-2-1.4-3.7-3.2-5.1-5.3c-1.3-2.1-2.2-4.4-2.7-6.9c0-0.1,0-0.1-0.1-0.2c-0.8-4.8,0.3-9.9,3.1-14 c0.1-0.1,0.1-0.2,0.2-0.2c1.4-2,3.2-3.7,5.3-5.1c2.1-1.3,4.3-2.2,6.7-2.7c0.1,0,0.3,0,0.4-0.1c4.9-0.8,10,0.3,14,3.1 c0.1,0,0.1,0.1,0.2,0.1c2,1.4,3.7,3.2,5.1,5.3c1.3,2.1,2.2,4.3,2.7,6.7c0,0.2,0,0.3,0.1,0.3c0.8,4.9-0.3,10-3.1,14 c-0.1,0.1-0.1,0.2-0.2,0.3C81.1,107.7,79.3,109.4,77.3,110.7z M85.9,107.9C85.9,107.9,85.9,107.9,85.9,107.9l-1.5-1.3L85.9,107.9z M80.7,113.2c2-1.5,3.8-3.2,5.2-5.3c0,0,0-0.1,0.1-0.1c0,0,0.1-0.1,0.1-0.1c0.2-0.4,0.5-0.7,0.7-1.1l15.5,7.7l-10.7,16.7 L80.7,113.2z M76.1,178.1c0,0.1-0.1,0.1-0.2,0.2c-0.8,1.1-1.8,2.1-3,2.9c-1.2,0.8-2.6,1.3-4,1.6c-0.1,0-0.1,0-0.1,0c0,0,0,0-0.1,0 c-2.8,0.5-5.7-0.2-8.1-1.8c0,0-0.1-0.1-0.1-0.1c-1.2-0.8-2.1-1.8-2.9-3.1c-0.8-1.2-1.3-2.5-1.6-4l0-0.1c-0.5-2.8,0.2-5.7,1.8-8.1 c0.1-0.1,0.1-0.1,0.1-0.2c0.8-1.2,1.9-2.2,3.1-2.9c1.2-0.8,2.5-1.3,3.8-1.5c0.1,0,0.2,0,0.3,0c2.8-0.5,5.7,0.2,8.1,1.8 c0,0,0.1,0.1,0.1,0.1c1.2,0.8,2.2,1.8,2.9,3.1c0.8,1.2,1.3,2.5,1.5,3.8c0,0.1,0,0.2,0,0.2C78.4,172.8,77.7,175.8,76.1,178.1z M81,177.3c0.9-2.5,1.3-5.2,0.8-7.9c0-0.1,0-0.1,0-0.2c-0.4-1.9-1.1-3.7-2.1-5.4c-0.7-1.1-1.5-2-2.4-2.9l14.2-22.3l27.1,44.5 c-1.9,1.5-3.7,3.2-5.1,5.2c0,0-0.1,0.1-0.1,0.1c-0.5,0.8-1,1.6-1.4,2.4L81,177.3z M142.7,217.7c-2.1,1.3-4.4,2.3-6.8,2.7 c-0.1,0-0.1,0-0.1,0c0,0-0.1,0-0.1,0c-4.9,0.8-10-0.3-14-3.1c-0.1,0-0.1-0.1-0.2-0.1c-0.8-0.6-1.6-1.2-2.3-2l0,0 c-0.5-0.5-1-1-1.4-1.5c0,0-0.1-0.1-0.1-0.1c-0.5-0.6-0.9-1.1-1.3-1.7c-0.3-0.4-0.5-0.9-0.8-1.4c-0.1-0.2-0.2-0.4-0.3-0.6 c-0.1-0.2-0.2-0.5-0.3-0.7c-0.3-0.6-0.5-1.3-0.7-1.9l0,0c-0.2-0.7-0.4-1.5-0.6-2.3c0-0.1,0-0.1-0.1-0.2c-0.8-4.8,0.3-9.9,3.1-14 c0.1-0.1,0.1-0.2,0.2-0.2c1.4-2,3.2-3.7,5.3-5.1c2.1-1.3,4.3-2.2,6.7-2.7c0.1,0,0.3,0,0.4-0.1c4.9-0.8,10,0.3,14,3.1 c0.1,0.1,0.1,0.1,0.2,0.2c2,1.4,3.7,3.2,5.1,5.3c1.3,2.1,2.2,4.3,2.7,6.7c0,0.2,0,0.3,0.1,0.3c0.5,3,0.3,6-0.6,8.9l0,0 c-0.1,0.3-0.2,0.6-0.3,0.8c-0.1,0.2-0.2,0.5-0.3,0.7c-0.1,0.2-0.2,0.5-0.3,0.7c-0.1,0.3-0.3,0.6-0.4,0.9c-0.1,0.2-0.2,0.4-0.3,0.6 c-0.3,0.5-0.6,0.9-0.9,1.4c-0.1,0.1-0.1,0.2-0.2,0.3c-0.3,0.5-0.7,0.9-1,1.3c-0.4,0.4-0.7,0.8-1.1,1.2l0,0 C144.8,216.2,143.8,217,142.7,217.7z"></path></g></svg>