<?xml version="1.0" standalone="no"?><!DOCTYPE svg PUBLIC "-//W3C//DTD SVG 1.1//EN" "http://www.w3.org/Graphics/SVG/1.1/DTD/svg11.dtd" [<!ENTITY nbsp "&#160;">]><svg id="open_icon" xmlns="http://www.w3.org/2000/svg" viewBox="0 0 256 256" version="1.1" xmlns:xlink="http://www.w3.org/1999/xlink" width="256" height="256"><title>Vorlesung</title><g fill="#A3ADB7"><path d="M229.2,177.3h-73.8c-1.1,0-2-0.9-2-2s0.9-2,2-2h71.8V34.5H27.5v138.7h7.8c1.1,0,2,0.9,2,2s-0.9,2-2,2h-9.8 c-1.1,0-2-0.9-2-2V32.5c0-1.1,0.9-2,2-2h203.7c1.1,0,2,0.9,2,2v142.7C231.2,176.4,230.3,177.3,229.2,177.3z"></path><path d="M95.6,158.5c-1.1,0-2-0.9-2-2v-0.8c0-1.1,0.9-2,2-2s2,0.9,2,2v0.8C97.6,157.6,96.7,158.5,95.6,158.5z"></path><path d="M95.6,170.3c-1.1,0-2-0.9-2-2v-0.8c0-1.1,0.9-2,2-2s2,0.9,2,2v0.8C97.6,169.4,96.7,170.3,95.6,170.3z"></path><path d="M95.6,170.3c-1.1,0-2-0.9-2-2v-0.8c0-1.1,0.9-2,2-2s2,0.9,2,2v0.8C97.6,169.4,96.7,170.3,95.6,170.3z"></path><path d="M95.4,112.2c-2.3,0-4.6-0.6-6.5-1.8c-0.9-0.6-1.2-1.8-0.6-2.8c0.6-0.9,1.8-1.2,2.8-0.6c2.6,1.6,6.1,1.6,8.7,0 c0.9-0.6,2.2-0.3,2.8,0.6c0.6,0.9,0.3,2.2-0.6,2.8C100,111.6,97.7,112.2,95.4,112.2z"></path><path d="M106.8,82.2c-3.7,0-6.8,2.2-8.2,5.4c-1.9-1-4.1-1-6-0.2c-1.4-3.1-4.5-5.2-8.1-5.2c-4.9,0-9,4-9,9c0,4.9,4,9,9,9 c4.8,0,8.7-3.7,8.9-8.4c0,0,0,0,0,0c1.1-1.1,2.9-1.1,4,0c0.1,0.1,0.3,0.2,0.5,0.3c0.4,4.6,4.3,8.2,8.9,8.2c4.9,0,9-4,9-9 C115.7,86.3,111.7,82.2,106.8,82.2z M84.4,96.2c-2.7,0-5-2.2-5-5s2.2-5,5-5s5,2.2,5,5S87.2,96.2,84.4,96.2z M106.8,96.2 c-2.7,0-5-2.2-5-5s2.2-5,5-5s5,2.2,5,5S109.5,96.2,106.8,96.2z"></path><path d="M202.8,76.1c-0.8,0-1.7,0.1-2.4,0.4l-7.8-11.4c1.3-1.5,2.1-3.4,2.1-5.4c0-4.5-3.7-8.2-8.2-8.2c-4.5,0-8.2,3.7-8.2,8.2 c0,1.7,0.6,3.4,1.5,4.7l-6.5,8.3c-1-0.4-2.1-0.7-3.2-0.7c-4.5,0-8.2,3.7-8.2,8.2s3.7,8.2,8.2,8.2s8.2-3.7,8.2-8.2 c0-1.9-0.7-3.6-1.7-5l6.3-8.1c1.1,0.5,2.3,0.8,3.6,0.8c1,0,1.9-0.2,2.7-0.5l7.8,11.2c-1.4,1.5-2.3,3.5-2.3,5.7 c0,4.5,3.7,8.2,8.2,8.2c4.5,0,8.2-3.7,8.2-8.2S207.3,76.1,202.8,76.1z M169.9,84.3c-2.3,0-4.1-1.8-4.1-4.1s1.8-4.1,4.1-4.1 s4.1,1.8,4.1,4.1S172.2,84.3,169.9,84.3z M182.3,59.7c0-2.3,1.8-4.1,4.1-4.1c2.3,0,4.1,1.8,4.1,4.1s-1.8,4.1-4.1,4.1 C184.1,63.8,182.3,62,182.3,59.7z M202.8,88.4c-2.3,0-4.1-1.8-4.1-4.1s1.8-4.1,4.1-4.1s4.1,1.8,4.1,4.1S205.1,88.4,202.8,88.4z"></path><path d="M172.7,106.1C172.7,106.1,172.7,106.1,172.7,106.1l-8.2,0c-1.1,0-2-0.9-2-2c0-1.1,0.9-2,2-2c0,0,0,0,0,0l8.2,0 c1.1,0,2,0.9,2,2C174.7,105.2,173.8,106.1,172.7,106.1z"></path><path d="M197.9,116.4C197.9,116.4,197.9,116.4,197.9,116.4l-33.5-0.1c-1.1,0-2-0.9-2-2c0-1.1,0.9-2,2-2c0,0,0,0,0,0l33.5,0.1 c1.1,0,2,0.9,2,2C199.9,115.5,199,116.4,197.9,116.4z"></path><path d="M197.9,126.6C197.9,126.6,197.9,126.6,197.9,126.6l-33.5-0.1c-1.1,0-2-0.9-2-2c0-1.1,0.9-2,2-2c0,0,0,0,0,0l33.5,0.1 c1.1,0,2,0.9,2,2C199.9,125.7,199,126.6,197.9,126.6z"></path><path d="M197.9,136.8C197.9,136.8,197.9,136.8,197.9,136.8l-33.5-0.1c-1.1,0-2-0.9-2-2c0-1.1,0.9-2,2-2c0,0,0,0,0,0l33.5,0.1 c1.1,0,2,0.9,2,2C199.9,135.9,199,136.8,197.9,136.8z"></path><path d="M235.6,207.3h-87.9v-55.5c0.1-0.7,0.2-4.1-1.5-6.8c-1.6-2.5-6.1-4.1-7.3-4.5l-24.3-10.5c-0.1,0-0.2-0.1-0.3-0.1 c0,0-1-0.3-1.7-1c-0.5-0.6-0.6-1.4-0.6-1.7v-5.3c5.8-4.1,9.8-10.3,10.7-17.4c1.4-0.1,2.8-0.5,4.1-1.3c1.9-1.2,3.2-3,3.6-5.2 c0-0.1,0-0.3,0.1-0.4c5.7-1.7,9.8-6.9,9.8-13.1c0-6.2-4.3-11.6-10.1-13.2c-1-6.7-6.6-11.7-13.6-11.7c-2.8,0-5.4,0.8-7.6,2.3 c-4-2.1-8.6-3.3-13.4-3.3c-4.8,0-9.4,1.2-13.4,3.3c-2.2-1.4-4.7-2.2-7.5-2.2c-6.9,0-12.6,5-13.5,11.7c-5.9,1.6-10.1,7-10.1,13.2 c0,6,3.9,11.2,9.4,13c0,0.2,0,0.4,0.1,0.5c0.5,2.2,1.7,4,3.6,5.2c1.3,0.8,2.8,1.3,4.3,1.3c0.9,6.8,4.6,12.7,10,16.8c0,0,0,0,0,0.1 l0.1,5.8c0,0,0,1-0.6,1.7c-0.6,0.7-1.6,1-1.6,1c-0.1,0-0.2,0.1-0.3,0.1l-24.2,10.5c-1.1,0.4-5.7,2-7.3,4.5c-1.7,2.7-1.5,6.1-1.5,6.8 v55.5H20.4c-2.2,0-4,1.8-4,4s1.8,4,4,4h215.2c2.2,0,4-1.8,4-4S237.8,207.3,235.6,207.3z M113.2,133.8 C113.2,133.8,113.2,133.8,113.2,133.8l1.5,0.6l-7.5,17.4l-8.7-8.4C104.5,142.5,111,139,113.2,133.8z M82.6,124 c3.9,2,8.4,3.2,13.2,3.2c4.5,0,8.7-1,12.5-2.8v2.9c0,0.3,0,2.6,1.6,4.4c0,0.1-0.1,0.1-0.1,0.2c-1.4,4.3-8,7.9-14.3,7.9 c-6.3,0-13-3.7-14.4-7.9c0,0,0-0.1,0-0.1c0,0,0.1-0.1,0.1-0.1c1.6-1.8,1.6-4.1,1.6-4.4L82.6,124z M126.7,97.2 c-0.2,1.1-0.9,2.1-1.8,2.7c-0.5,0.3-1.1,0.5-1.7,0.6V93v-1c0.1,0,0.1,0,0.2,0.1C125.7,92.5,127.2,94.9,126.7,97.2z M116.7,63.6 c5.3,0,9.5,4.1,9.7,9.4c0,1,0.7,1.8,1.7,1.9c4.7,0.7,8.3,4.8,8.3,9.6c0,4.1-2.6,7.6-6.1,9c-0.9-2.7-3.1-4.8-6-5.5 c-0.4-0.1-0.8-0.1-1.1,0.1v-3.7V84c0-0.1,0-0.1,0-0.2C122.9,76,119,69,113,64.4C114.1,63.9,115.4,63.6,116.7,63.6z M61,93.4 c-3.4-1.5-5.8-4.9-5.8-8.9c0-4.8,3.6-8.9,8.3-9.6c1-0.1,1.7-1,1.7-1.9c0.2-5.3,4.4-9.4,9.7-9.4c1.3,0,2.5,0.3,3.6,0.7 c-6.2,4.8-10.2,12-10.2,20.2v3.8C67.9,88,67.4,88,67,88.1C64.1,88.7,61.9,90.8,61,93.4z M64.5,97.2c-0.5-2.4,1-4.7,3.3-5.2 c0.1,0,0.3-0.1,0.4-0.1v8.7c-0.7-0.1-1.3-0.2-1.9-0.6C65.4,99.3,64.8,98.4,64.5,97.2z M72.3,101.2v-12v-4.7 c0-12.1,10.5-21.9,23.4-21.9s23.4,9.8,23.4,21.9V93v8.3c0,12.1-10.5,21.9-23.4,21.9S72.3,113.3,72.3,101.2z M77.5,133.8 c2.2,5.2,8.6,8.6,14.6,9.6l-8.8,8.4l-7.5-17.3L77.5,133.8z M143.7,151.6c0,0.1,0,0.1,0,0.2v55.6h-14.6v-47.8c0-1.1-0.9-2-2-2 c-1.1,0-2,0.9-2,2v47.8H67.8v-47.8c0-1.1-0.9-2-2-2s-2,0.9-2,2v47.8H47.2v-55.6c0-0.1,0-0.1,0-0.2c-0.1-0.7-0.1-3,0.8-4.4 c0.7-1,3.5-2.3,5.2-2.9c0.1,0,0.1,0,0.2-0.1l18.8-8.1l8.6,19.9c0.3,0.6,0.8,1,1.4,1.2c0.1,0,0.3,0,0.4,0c0.5,0,1-0.2,1.4-0.6 L95.3,146l11.2,10.7c0.4,0.4,0.9,0.6,1.4,0.6c0.1,0,0.3,0,0.4,0c0.6-0.1,1.2-0.6,1.4-1.2l8.7-20l19.1,8.2c0.1,0,0.1,0,0.2,0.1 c1.7,0.5,4.6,1.8,5.2,2.9C143.7,148.6,143.8,150.8,143.7,151.6z"></path></g></svg>