<?xml version="1.0" standalone="no"?><!DOCTYPE svg PUBLIC "-//W3C//DTD SVG 1.1//EN" "http://www.w3.org/Graphics/SVG/1.1/DTD/svg11.dtd" [<!ENTITY nbsp "&#160;">]><svg id="open_icon" xmlns="http://www.w3.org/2000/svg" viewBox="0 0 256 256" version="1.1" xmlns:xlink="http://www.w3.org/1999/xlink" width="256" height="256"><title>Baum</title><g fill="#DC6027"><path d="M235.3,207.3h-71.5c-12.3-2.1-21.8-12.9-21.8-25.9V167c5.1,3.1,10.9,4.7,17,4.7c15.8,0,29.4-11.2,32.5-26.6 c0-0.1,0-0.1,0-0.2c0.4,0,0.8,0,1.2,0c12.7,0,23.1-10.4,23.1-23.1c0-11.9-9-21.7-20.6-23c4.3-5.7,6.6-12.6,6.6-19.9 c0-18.3-14.9-33.2-33.2-33.2c-6.9,0-13.4,2.2-18.9,6c-0.1-0.6-0.3-1.2-0.4-1.7c-3.7-12.2-16.6-19.1-28.8-15.4 c-6.4,1.9-11.5,6.4-14.2,12.3c-6.9-5.7-16.2-7.8-25-5.3c-14.6,4.1-23.1,19.3-18.9,33.9c0.7,2.6,1.8,4.9,3.2,7.2 c-7.1,0.9-13.9,4.2-19.1,9.4c-12.9,12.9-12.9,34,0,47c6.3,6.3,14.9,9.7,23.6,9.7c1,0,1.9,0,2.9-0.1c0,6.1,2.3,11.8,6.6,16.2 c4.3,4.4,10.1,6.9,16.2,7c0.1,0,0.2,0,0.3,0c5.9,0,11.4-2.2,15.7-6.2v18.3c-1,11.6-9.7,21.1-20.7,23.5H20.2c-2.2,0-4,1.8-4,4 s1.8,4,4,4h215.2c2.2,0,4-1.8,4-4S237.5,207.3,235.3,207.3z M109.4,162.3c-3.6,3.6-8.5,5.5-13.6,5.4c-5.1-0.1-9.9-2.1-13.4-5.8 c-3.6-3.6-5.5-8.5-5.4-13.6c0-0.1,0-0.3,0-0.4c1.4-0.3,2.7-0.7,4-1.1c1-0.4,1.6-1.5,1.2-2.5c-0.4-1-1.5-1.6-2.5-1.2 c-10.5,3.7-22.4,1-30.3-6.9c-5.5-5.5-8.6-12.8-8.6-20.6c0-7.8,3-15.1,8.6-20.6c6.9-6.9,16.7-9.9,26.2-8c1.1,0.2,2.1-0.5,2.3-1.6 c0.2-1.1-0.5-2.1-1.6-2.3c-2-0.4-4-0.6-6-0.6c-1.8-2.4-3.2-5-4-7.9c-3.5-12.4,3.7-25.4,16.2-28.9c8.3-2.3,17.2,0,23.2,6.2 c0.8,0.8,2,0.8,2.8,0c0.3-0.3,0.4-0.6,0.5-0.9c0.1-0.2,0.3-0.4,0.3-0.6c2.1-5.7,6.6-10,12.4-11.8c10.1-3,20.8,2.7,23.8,12.8 c0.3,0.8,0.5,1.7,0.6,2.6c0,0.3,0.1,0.5,0.3,0.7c-3.1,2.8-5.7,6.2-7.6,10.1c-0.5,1-0.1,2.2,0.9,2.7c1,0.5,2.2,0.1,2.7-0.9 c4.8-10,15.2-16.5,26.3-16.5c16.1,0,29.2,13.1,29.2,29.2c0,7.6-2.9,14.8-8.2,20.3c-0.8,0.8-0.8,2.1,0,2.8c0.4,0.4,0.9,0.6,1.4,0.6 c0.2,0.1,0.4,0.1,0.6,0.1c0.4,0,0.7,0,1.1,0c10.5,0,19.1,8.6,19.1,19.1s-8.6,19.1-19.1,19.1c-3.3,0-6.5-0.8-9.3-2.4 c-1-0.5-2.2-0.2-2.7,0.8c-0.5,1-0.2,2.2,0.8,2.7c1.9,1.1,4,1.9,6.2,2.4c-2.7,13.6-14.8,23.4-28.6,23.4c-6.2,0-12.1-1.9-17-5.5V155 c0.1-4.1,1.7-7.9,4.6-10.7c0,0,0.1-0.1,0.1-0.1l11.4-11.4c0.3-0.3,0.5-0.5,0.7-0.8c0.6,0,1.2,0.1,1.8,0.1c3.5,0,7.1-0.8,10.4-2.3 c1-0.5,1.4-1.7,1-2.7c-0.5-1-1.7-1.4-2.7-1c-10.3,4.8-22.5,0.3-27.3-10c-0.1-0.1-0.1-0.2-0.2-0.3c2.1-1.2,4.1-2.6,5.9-4.2 c0.8-0.7,0.9-2,0.2-2.8c-0.7-0.8-2-0.9-2.8-0.2c-5.3,4.8-12.2,7.4-19.4,7.4c-11.8,0-22.3-7-26.9-17.8c-0.4-1-1.6-1.5-2.6-1.1 c-1,0.4-1.5,1.6-1.1,2.6c1.7,4,4.1,7.5,7,10.4c-0.1,0.2-0.2,0.4-0.3,0.6c-2.9,10.1-13.5,16-23.6,13.1c-1.1-0.3-2.2,0.3-2.5,1.4 c-0.3,1.1,0.3,2.2,1.4,2.5c2.1,0.6,4.3,0.9,6.4,0.9c2.4,0,4.8-0.4,7-1.1l16.6,16.6c0.1,0.1,0.1,0.2,0.2,0.2 c2.9,2.9,4.5,6.7,4.6,10.7v4.5C111.1,160.5,110.3,161.4,109.4,162.3z M133.6,119c1.6-0.4,3.1-0.9,4.6-1.5c0,0.1,0.1,0.2,0.1,0.3 c1.3,2.9,3.2,5.4,5.4,7.5l-10.1,10.1V119z M118.2,119.2v14.3L102.7,118c1-1.5,1.8-3.2,2.4-5C108.9,116,113.4,118.1,118.2,119.2z M101.5,207.3c7.9-4.9,13.5-13.4,14.3-23.2c0-0.1,0-0.1,0-0.2l0-23.2c0,0,0,0,0,0l0-5.7c0-0.5-0.1-1.1-0.1-1.6c0-0.2,0-0.4-0.1-0.6 c0-0.3-0.1-0.5-0.1-0.8c-0.1-0.5-0.2-1-0.3-1.6c0,0,0-0.1,0-0.1c0,0,0,0,0,0c-0.9-3.2-2.5-6.2-4.9-8.7c-0.1-0.1-0.1-0.2-0.2-0.2 l-15.7-15.7c2.2-1.2,4.2-2.7,5.9-4.6l18.5,18.5c0.6,0.6,1.4,0.7,2.2,0.4c0.7-0.3,1.2-1,1.2-1.8v-18.4c1.1,0.1,2.3,0.2,3.4,0.2 c1.4,0,2.7-0.1,4-0.3v20.5c0,0.8,0.5,1.5,1.2,1.8c0.7,0.3,1.6,0.1,2.2-0.4l13.8-13.8c1.6,1.1,3.4,2,5.3,2.7 c0.6,0.2,1.3,0.4,1.9,0.6l-10.2,10.2c0,0-0.1,0.1-0.1,0.1c-3.6,3.6-5.6,8.3-5.7,13.4v26.5c0,11,5.9,20.6,14.6,25.9H101.5z"></path></g></svg>