<?xml version="1.0" standalone="no"?><!DOCTYPE svg PUBLIC "-//W3C//DTD SVG 1.1//EN" "http://www.w3.org/Graphics/SVG/1.1/DTD/svg11.dtd" [<!ENTITY nbsp "&#160;">]><svg id="open_icon" xmlns="http://www.w3.org/2000/svg" viewBox="0 0 256 256" version="1.1" xmlns:xlink="http://www.w3.org/1999/xlink" width="256" height="256"><title>Gruppenarbeit</title><path fill="#DC6027" d="M191.77,121.81a2,2,0,0,0-2-2h-3a2,2,0,0,0,0,4h3A2,2,0,0,0,191.77,121.81Z"></path><path fill="#DC6027" d="M205.77,119.81h-3a2,2,0,0,0,0,4h3a2,2,0,1,0,0-4Z"></path><path fill="#DC6027" d="M199.16,133a6,6,0,0,1-6.54,0,2,2,0,1,0-2.22,3.33,9.89,9.89,0,0,0,11,0,2,2,0,0,0-2.21-3.33Z"></path><path fill="#DC6027" d="M39,172.92a2,2,0,0,0-2,2v19a2,2,0,0,0,1.54,1.95l39.74,9.3a1.73,1.73,0,0,0,.45,0,2,2,0,0,0,.46-3.94l-12.83-3,11.48-2.39a2,2,0,0,0,1.59-2v-19a2,2,0,0,0-4,0v17.33l-17.41,3.62a2,2,0,0,0-.63.26L41,192.29V174.92A2,2,0,0,0,39,172.92Z"></path><path fill="#DC6027" d="M64.31,120.4v3a2,2,0,0,0,4,0v-3a2,2,0,0,0-4,0Z"></path><path fill="#DC6027" d="M61.2,133.07a6,6,0,0,1-6.54,0,2,2,0,1,0-2.22,3.33,9.89,9.89,0,0,0,11,0,2,2,0,0,0-2.21-3.33Z"></path><path fill="#DC6027" d="M235.58,207.28h-7.35a13.88,13.88,0,0,0,4.1-9.85,1.49,1.49,0,0,0,0-.21V169.35a10.94,10.94,0,0,0-1.21-5.94c-1.36-2.29-5.2-3.71-6.09-4l-14.95-6-.17-.06a2.66,2.66,0,0,1-1.14-.76,2.5,2.5,0,0,1-.44-1.32v-4.81A22.69,22.69,0,0,0,217,136.31a7.45,7.45,0,0,0,.95.07,6.68,6.68,0,0,0,3.61-1,7.37,7.37,0,0,0,3.21-4.77,7.58,7.58,0,0,0-5.38-8.85,1.74,1.74,0,0,0-.6,0c0-.63-.06-1.25-.13-1.85a2,2,0,0,0,.29-1v-8a22,22,0,0,0-15.25-21,2,2,0,0,0-1.75.25l-3.29,2.26-7.56-5.4a2,2,0,0,0-2.08-.15,2,2,0,0,0-1.08,1.77l0,5.11-1.74-.76a2,2,0,0,0-1.84.11,22.92,22.92,0,0,0-8.8,9.58,1.39,1.39,0,0,0-.21.4,21.77,21.77,0,0,0-1.51,8v9.15a2,2,0,0,0-1,0,7.58,7.58,0,0,0-5.38,8.84,7.38,7.38,0,0,0,3.21,4.77,6.69,6.69,0,0,0,3.61,1.06,6.3,6.3,0,0,0,.75-.05,22.59,22.59,0,0,0,8.34,11.15,1.93,1.93,0,0,0,0,.42v5a2.55,2.55,0,0,1-.44,1.31,2.7,2.7,0,0,1-1.11.75l-.2.07-9.13,3.65a2,2,0,0,0,.75,3.86,2.2,2.2,0,0,0,.74-.14l9.06-3.63a6.69,6.69,0,0,0,1.61-.8,13.52,13.52,0,0,0,22.4,0,6.74,6.74,0,0,0,1.69.85l14.93,6,.1,0c1.56.53,3.58,1.61,4,2.31a7.08,7.08,0,0,1,.65,3.61c0,.06,0,.13,0,.19v28.16a.51.51,0,0,0,0,.13,10,10,0,0,1-8.62,9.72H207.84V196.87h8.28a2,2,0,0,0,2-2v-19a2,2,0,1,0-4,0v17h-6.28V169.36a2,2,0,0,0-2-2H177.3a2,2,0,0,0,0,4h26.54v35.92H169.07a17.18,17.18,0,0,0,2.82-9.44s0-.07,0-.12l0-28.36a10,10,0,0,0-1.43-6.06c-1.58-2.29-6.06-3.69-6.85-3.92l-17.33-6-.16,0a3.62,3.62,0,0,1-1.48-.85,2.07,2.07,0,0,1-.48-1.21V135.78a25.25,25.25,0,0,0,6.55-7.63,6.44,6.44,0,0,0,1.24.13,6.73,6.73,0,0,0,2.2-.37,7.12,7.12,0,0,0,4.17-3.87,7.65,7.65,0,0,0-3.23-9.86A2,2,0,0,0,154,114v-5.73a25.56,25.56,0,0,0-11.63-21.77,2,2,0,0,0-2.25.06l-1.54,1.12-3.46-3.83a2,2,0,0,0-1.14-.63,22.32,22.32,0,0,0-4-.36c-13.23,0-24,11.4-24,25.41v5.58a2,2,0,0,0-.67.11,7.59,7.59,0,0,0-4.33,9.41,7.37,7.37,0,0,0,3.73,4.37,6.81,6.81,0,0,0,3,.68,6.7,6.7,0,0,0,1.65-.23,25.32,25.32,0,0,0,6.3,7.44v15.66a2.12,2.12,0,0,1-.47,1.23,3.75,3.75,0,0,1-1.48.85l-.17,0-17.23,6c-.89.26-5.37,1.66-7,4a9.92,9.92,0,0,0-1.42,6.06v28.22s0,0,0,0v.23a17.18,17.18,0,0,0,2.82,9.44H25.61v-38a1.21,1.21,0,0,0,0-.19,7.1,7.1,0,0,1,.65-3.62c.42-.69,2.44-1.77,4-2.3l.1,0,9.24-3.69L45.48,173a2,2,0,0,0,1.44,1.16,1.72,1.72,0,0,0,.39,0,2,2,0,0,0,1.38-.55l9.39-9,9.39,9a2,2,0,0,0,1.38.55,1.81,1.81,0,0,0,.4,0A2,2,0,0,0,70.69,173l5.9-13.58,8.22,3.29a2.16,2.16,0,0,0,2.87-1.95V112.66c-.11-9.08-7-18.93-17.44-23.82a2,2,0,0,0-.68-.3,32.82,32.82,0,0,0-13.31-2.82c-17.7,0-31.44,14.8-31.44,27.54l.23,48a7.22,7.22,0,0,0-2.22,2.14,10.94,10.94,0,0,0-1.21,5.94v37.93H20.42a4,4,0,1,0,0,8H105v-.1h.28a2,2,0,0,0,2-2c0-.06,0-.11,0-.16V189.12a2,2,0,0,0-4,0h0V211a13.44,13.44,0,0,1-8.2-4.64,1.13,1.13,0,0,0-.1-.13c-.22-.27-.44-.55-.64-.85l-.15-.21c-.17-.27-.34-.54-.5-.82l-.16-.29c-.14-.26-.27-.53-.39-.8,0-.12-.11-.23-.16-.35s-.2-.53-.29-.8-.1-.26-.14-.39-.15-.54-.21-.82c0-.13-.07-.27-.1-.41s-.1-.59-.14-.88l-.06-.38c0-.43-.07-.86-.07-1.29h0a.5.5,0,0,0,0-.12V169.27a1.49,1.49,0,0,0,0-.21,6.06,6.06,0,0,1,.73-3.48c.5-.73,2.92-1.85,4.87-2.42l17.26-6a8,8,0,0,0,2.11-1,19.46,19.46,0,0,0,26,1.07,2.14,2.14,0,0,0,.56-.75,7.74,7.74,0,0,0,1.57.65l17.35,6c1.86.54,4.28,1.66,4.78,2.39a6,6,0,0,1,.73,3.47,1.7,1.7,0,0,0,0,.22l0,28.39h0v.15h0v.06h0c0,.44,0,.87-.06,1.3l-.06.39c0,.29-.08.59-.14.88s-.06.29-.1.43-.13.55-.21.81-.09.28-.14.41-.18.54-.29.8-.1.24-.16.36c-.12.27-.25.54-.39.8l-.16.3c-.16.28-.33.55-.5.81l-.15.23c-.2.29-.42.57-.64.85l-.11.13a13.34,13.34,0,0,1-8.19,4.65l.14-21.27v-.62a2,2,0,0,0-2-2h0a2,2,0,0,0-2,2l-.16,24.19a2,2,0,0,0,2,2h0l.19,0h80.83a4,4,0,0,0,0-8Zm-16.81-79.81v-1.74a3.6,3.6,0,0,1,2,4,3.33,3.33,0,0,1-1.43,2.17,2.75,2.75,0,0,1-1.15.41A22.55,22.55,0,0,0,218.77,127.47Zm-46,2.84a3.23,3.23,0,0,1-1.43-2.17,3.53,3.53,0,0,1,2.41-4.18h0v3.52a23.38,23.38,0,0,0,.23,3.26A2.7,2.7,0,0,1,172.76,130.31Zm5-19.37a18,18,0,0,1,1.13-6.27l0-.09a19,19,0,0,1,6.55-7.64l3.56,1.56a2,2,0,0,0,2.8-1.82l0-4.3,5.55,4a2,2,0,0,0,2.29,0l3.61-2.47a18,18,0,0,1,11.57,16.64,26.54,26.54,0,0,0-3.39-3.75,2,2,0,0,0-1.53-.53,2,2,0,0,0-1.42.78l-4.09,5.34-18-7.42a2,2,0,0,0-1.79.14,22.34,22.34,0,0,0-6.93,6.51Zm26.57,41.52c-1.05,3.42-4.59,5.81-8.61,5.81s-7.54-2.38-8.6-5.79a6.54,6.54,0,0,0,.14-1.21v-3.18a22.46,22.46,0,0,0,17,.39v2.77a6.16,6.16,0,0,0,.11,1A1.3,1.3,0,0,0,204.34,152.46ZM196.27,146a18.52,18.52,0,0,1-18.5-18.5v-9.82a2,2,0,0,0,1.76-1.14,18.41,18.41,0,0,1,6.4-7.45l18.44,7.6a2,2,0,0,0,2.35-.63l3.63-4.74a15.46,15.46,0,0,1,4.42,11v5.16A18.52,18.52,0,0,1,196.27,146Zm-42.42-27.79a3.72,3.72,0,0,1,.8,4.22,3.21,3.21,0,0,1-1.84,1.73,2.09,2.09,0,0,1-.34.08A26.6,26.6,0,0,0,153.85,118.18Zm-47.36,5.92a3.27,3.27,0,0,1-1.67-2,3.65,3.65,0,0,1,1.33-4.14,25.94,25.94,0,0,0,1.46,6.4A2.79,2.79,0,0,1,106.49,124.1ZM39.84,155a1.18,1.18,0,0,0-.19.11L29,159.35l-.2-43.09a27,27,0,0,0,6.86,3.7v7.38a22.48,22.48,0,0,0,10,18.66,1.24,1.24,0,0,0,0,.27v5a2.48,2.48,0,0,1-.43,1.33,2.66,2.66,0,0,1-1.12.75l-.19.07-3.65,1.46A1.68,1.68,0,0,0,39.84,155ZM48,168.75l-4.7-10.81,2-.79a6.7,6.7,0,0,0,1.62-.8,13,13,0,0,0,8.21,5.6Zm10.08-10.48c-4,0-7.55-2.38-8.61-5.79a6.54,6.54,0,0,0,.14-1.21v-3l.48,0a22.22,22.22,0,0,0,8.1,1.52,22.48,22.48,0,0,0,8.14-1.53l.33,0v3a6.89,6.89,0,0,0,.1,1c0,.06-.05.11-.07.17C65.64,155.88,62.1,158.27,58.08,158.27Zm10.08,10.48L61.05,162a13,13,0,0,0,8.24-5.65,6.91,6.91,0,0,0,1.69.85l1.9.76Zm3.33-73.86c0-.26,0-.53,0-.8C78.81,98.64,83.6,106,83.68,112.68v45.25L72.4,153.41l-.17-.06a2.72,2.72,0,0,1-1.14-.76,2.47,2.47,0,0,1-.43-1.32v-5c0-.07,0-.14,0-.2a22.51,22.51,0,0,0,10-18.73v-9.66a2.45,2.45,0,0,0,0-.27s0-.08,0-.12a1.66,1.66,0,0,0-.06-.21s0-.11,0-.17a1,1,0,0,1-.08-.14l-.11-.19a1,1,0,0,0-.16-.2l-.08-.1-.15-.12a1.58,1.58,0,0,0-.15-.12l-.12-.07a1.79,1.79,0,0,0-.24-.12h0a15.41,15.41,0,0,1-9.51-11.91A26.84,26.84,0,0,0,71.49,94.89Zm-.07,20.36A19.48,19.48,0,0,0,76.69,119v8.36a18.5,18.5,0,0,1-37,0v-6.27a26.27,26.27,0,0,0,8.62.28v2.05a2,2,0,0,0,4,0v-2.91a26.83,26.83,0,0,0,15-11.29A19.35,19.35,0,0,0,71.42,115.25ZM56.25,89.72a28.69,28.69,0,0,1,11,2.23,22.67,22.67,0,0,1-36.19,21,2,2,0,0,0-2.26-.1C29.12,100,43.94,89.72,56.25,89.72Zm84.08,64.48a15.45,15.45,0,0,1-21-1.19,6.36,6.36,0,0,0,.3-1.74V138.16A22.74,22.74,0,0,0,130,140.67h0a22.64,22.64,0,0,0,10.12-2.39v13a6.36,6.36,0,0,0,.66,2.67A1.83,1.83,0,0,0,140.33,154.2ZM130,136.67a18.78,18.78,0,0,1-8.33-2A19.44,19.44,0,0,0,138,117.39a2,2,0,1,0-4-.39,15.49,15.49,0,0,1-16.75,13.91,1.87,1.87,0,0,0-.79.09,21.21,21.21,0,0,1-3-3.74,19.48,19.48,0,0,0,17.81-20,2,2,0,1,0-4,.12,15.49,15.49,0,0,1-14.85,15.93,1.9,1.9,0,0,0-.85.24,22.72,22.72,0,0,1-1.56-8.29v-7c0-11.8,9-21.41,20-21.41a19.47,19.47,0,0,1,2.62.19l4.19,4.65a2,2,0,0,0,2.66.27l1.85-1.34A22,22,0,0,1,150,108.23v7C150,127.07,141,136.67,130,136.67Z"></path></svg>