<?xml version="1.0" standalone="no"?><!DOCTYPE svg PUBLIC "-//W3C//DTD SVG 1.1//EN" "http://www.w3.org/Graphics/SVG/1.1/DTD/svg11.dtd" [<!ENTITY nbsp "&#160;">]><svg id="open_icon" xmlns="http://www.w3.org/2000/svg" viewBox="0 0 256 256" version="1.1" xmlns:xlink="http://www.w3.org/1999/xlink" width="256" height="256"><title>Innovation</title><g fill="#DC6027"><path d="M145.5,100.4c-0.5,0-0.9-0.2-1.3-0.5c-0.8-0.7-0.9-2-0.2-2.8c0,0,0.1-0.1,0.1-0.1c9.1-10.3,8.2-26.2-2-35.4 c-0.8-0.7-0.9-2-0.2-2.8c0.7-0.8,2-0.9,2.8-0.2c11.9,10.7,12.9,29.1,2.3,41c0,0-0.1,0.1-0.1,0.1 C146.6,100.2,146.1,100.4,145.5,100.4z"></path><path d="M126.6,36.8c-1.1,0-2-0.9-2-2v-10c0-1.1,0.9-2,2-2s2,0.9,2,2v10C128.6,36,127.7,36.8,126.6,36.8z"></path><path d="M80.8,82.2H69.4c-1.1,0-2-0.9-2-2s0.9-2,2-2h11.4c1.1,0,2,0.9,2,2S81.9,82.2,80.8,82.2z"></path><path d="M92.4,49.1c-0.5,0-1-0.2-1.4-0.6l-7.9-7.9c-0.8-0.8-0.8-2,0-2.8s2-0.8,2.8,0l7.9,7.9c0.8,0.8,0.8,2,0,2.8 C93.5,49,93,49.1,92.4,49.1z"></path><path d="M160.8,49.1c-0.5,0-1-0.2-1.4-0.6c-0.8-0.8-0.8-2,0-2.8l7.1-7.1c0.8-0.8,2-0.8,2.8,0s0.8,2,0,2.8l-7.1,7.1 C161.8,49,161.3,49.1,160.8,49.1z"></path><path d="M186.5,81.8h-10c-1.1,0-2-0.9-2-2s0.9-2,2-2h10c1.1,0,2,0.9,2,2S187.6,81.8,186.5,81.8z"></path><path d="M235.5,207.5h-80.9l26.9-15.5c0.6-0.4,1-1,1-1.7v-27.3l16.1-9.4c0.5-0.3,0.8-0.8,1-1.4s0-1.2-0.4-1.6L183.1,130l16.5-21 c0.4-0.5,0.5-1,0.4-1.6c-0.1-0.6-0.5-1.1-1-1.4l-28.4-16.2c-1-0.5-2.2-0.2-2.7,0.7c-0.5,1-0.2,2.2,0.7,2.7l26.4,15.1l-14.8,18.9 l-24.8-14.3c-0.2-0.1-0.4-0.2-0.6-0.2c-0.9-0.4-2,0-2.5,0.9c-0.6,1-0.2,2.2,0.7,2.7l23.2,13.4l-48.4,28l-20.5-11.8l-28-16.2 l22.1-12.9c0.1,0,0.2-0.1,0.2-0.2c0,0,0.1,0,0.1-0.1c0.1-0.1,0.1-0.1,0.2-0.2c0,0,0.1-0.1,0.1-0.1c0-0.1,0.1-0.1,0.1-0.2 c0-0.1,0.1-0.1,0.1-0.2c0-0.1,0-0.1,0.1-0.2c0-0.1,0-0.1,0.1-0.2c0-0.1,0-0.1,0-0.2c0-0.1,0-0.1,0-0.2c0-0.1,0-0.2,0-0.3 c0,0,0-0.1,0-0.1c0-0.1,0-0.2-0.1-0.3c0,0,0-0.1,0-0.1c0-0.1-0.1-0.2-0.1-0.3c0,0,0,0,0-0.1c0,0,0,0,0,0c0,0,0,0,0,0 c0-0.1-0.1-0.1-0.1-0.2c0,0-0.1-0.1-0.1-0.1c0,0-0.1-0.1-0.1-0.1c-0.1-0.1-0.1-0.1-0.2-0.2c0,0,0,0-0.1,0c-0.1-0.1-0.2-0.1-0.3-0.2 c0,0,0,0-0.1,0c-0.1,0-0.2-0.1-0.3-0.1c0,0,0,0-0.1,0c-0.1,0-0.2,0-0.3-0.1c0,0-0.1,0-0.1,0c-0.1,0-0.2,0-0.3,0c-0.1,0-0.1,0-0.2,0 c-0.1,0-0.2,0-0.2,0.1c-0.1,0-0.2,0.1-0.3,0.1c0,0-0.1,0-0.1,0.1l0,0c0,0,0,0,0,0l-0.1,0.1l-23,13.3l-14.8-18.9l25.2-14.6 c1-0.6,1.3-1.8,0.7-2.7c-0.6-1-1.8-1.3-2.7-0.7l-27.2,15.8c-0.5,0.3-0.9,0.8-1,1.4c-0.1,0.6,0,1.2,0.4,1.6l16.3,20.8l-16.7,21.3 c-0.4,0.5-0.5,1-0.4,1.6c0.1,0.6,0.5,1.1,1,1.4l16.3,9.4v27.3c0,0.7,0.4,1.4,1,1.7l26.8,15.5h-81c-2.2,0-4,1.8-4,4s1.8,4,4,4h94.9 l11.8,6.8c0.3,0.2,0.7,0.3,1,0.3c0.3,0,0.7-0.1,1-0.3c0,0,0,0,0,0c0,0,0,0,0.1,0l11.7-6.8h94.7c2.2,0,4-1.8,4-4 S237.7,207.5,235.5,207.5z M194.7,151.2l-48.4,28.1l-14.8-18.9l48.4-28.1L194.7,151.2z M61.2,151.2L76,132.3l49.2,28.4l-14.8,18.9 L61.2,151.2z M126,217.1l-48.5-28v-23.9l32.3,18.7c0.3,0.2,0.7,0.3,1,0.3c0.6,0,1.2-0.3,1.6-0.8l13.5-17.3V217.1z M130.1,217.1 v-51.9l14.1,18c0.4,0.5,1,0.8,1.6,0.8c0.3,0,0.7-0.1,1-0.3l31.8-18.5v23.9L130.1,217.1z"></path><path d="M163.8,75.3c-2.7-19.9-21.1-33.9-40.9-31.2c-19.9,2.7-33.9,21.1-31.2,41c1.4,10.3,7.1,19.5,15.7,25.3 c2.6,5.6,4.2,11.7,4.7,17.7c0,0.1,0,0.1,0,0.2c0.4,8.2,7,14.7,15.2,14.9c0.1,0,0.2,0,0.4,0c8.4,0,15.3-6.7,15.6-15.1 c0.7-6.2,2.5-12.3,5.3-17.9C159.8,102.3,165.6,89,163.8,75.3z M116,127.8c0-0.1,0-0.3-0.1-0.4c0-0.4-0.1-0.9-0.2-1.3l23.6,0.1 c-0.1,0.5-0.1,0.9-0.2,1.4c0,0.1,0,0.2,0,0.3c0,0.8-0.1,1.5-0.3,2.2l-22.6-0.1C116.1,129.2,116,128.5,116,127.8z M140.1,122.2 l-24.9-0.1c-0.3-1.3-0.6-2.7-0.9-4l26.8,0.1C140.7,119.5,140.4,120.8,140.1,122.2z M127.3,139.1c-3.9-0.1-7.4-2.1-9.4-5.2l19.3,0.1 C135.1,137.2,131.4,139.2,127.3,139.1z M145.8,107.1c-0.3,0.2-0.5,0.4-0.6,0.7c0,0-0.1,0.1-0.1,0.1c-1,2-1.9,4.1-2.7,6.3 c-0.1,0-0.1,0-0.2,0l-29.1-0.1c-0.6-1.9-1.4-3.8-2.2-5.6c-0.1-0.5-0.4-0.9-0.8-1.2c-7.9-5.2-13.2-13.5-14.4-22.8 c-2.4-17.7,10.1-34.1,27.8-36.5c17.7-2.4,34.1,10.1,36.4,27.8C161.5,88.2,156.1,100.1,145.8,107.1z"></path></g></svg>