<?xml version="1.0" standalone="no"?><!DOCTYPE svg PUBLIC "-//W3C//DTD SVG 1.1//EN" "http://www.w3.org/Graphics/SVG/1.1/DTD/svg11.dtd" [<!ENTITY nbsp "&#160;">]><svg id="open_icon" xmlns="http://www.w3.org/2000/svg" viewBox="0 0 256 256" version="1.1" xmlns:xlink="http://www.w3.org/1999/xlink" width="256" height="256"><title>Prozess</title><g fill="#DC6027"><path d="M117.2,70.8c-0.6,0-1.2-0.3-1.6-0.8c-4.5-5.7-9.9-10.2-16.2-13.5c-0.1,0-0.2-0.1-0.3-0.1L99,56.3 c-0.1,0-0.1,0-0.2-0.1c-5.9-3-12.2-4.9-19-5.5c-1.4-0.1-2.8-0.2-4.4-0.2c-1.1,0-2-0.9-2-2c0-1.1,0.9-2,2-2c0,0,0,0,0,0 c1.7,0,3.3,0.1,4.8,0.2c7.2,0.7,14.1,2.7,20.4,5.9c0.1,0,0.2,0.1,0.2,0.1c0.1,0,0.1,0.1,0.2,0.1c0.1,0,0.1,0,0.2,0.1 c6.8,3.6,12.7,8.5,17.6,14.6c0.7,0.9,0.5,2.1-0.3,2.8C118.1,70.6,117.7,70.8,117.2,70.8z"></path><path d="M121.5,90.6c-0.7,0-1.3-0.3-1.7-1c-6.1-10.1-15.5-17.8-26.6-21.8c-0.1,0-0.2-0.1-0.3-0.1l-0.1,0 c-0.1,0-0.1,0-0.2,0c-6.2-2.2-12.8-3.1-19.6-2.8c-6.1,0.3-12,1.7-17.6,4.1c-1,0.4-2.2,0-2.6-1c-0.4-1,0-2.2,1-2.6 c6.1-2.6,12.4-4.1,19-4.5c7.2-0.4,14.3,0.6,21,3c0.1,0,0.2,0.1,0.3,0.1c0.1,0,0.1,0,0.2,0.1c0.1,0,0.1,0,0.2,0.1 c11.9,4.3,22.2,12.6,28.7,23.5c0.6,0.9,0.3,2.2-0.7,2.7C122.2,90.5,121.9,90.6,121.5,90.6z"></path><path d="M178.2,137.4C178.1,137.4,178.1,137.4,178.2,137.4c-5.9-0.2-11.6-1.4-17-3.7c-0.9-0.4-1.4-1.3-1.2-2.3l1.6-7.1 c-2.4-1.3-4.7-2.9-6.8-4.8l-6.1,3.9c-0.8,0.5-1.9,0.4-2.5-0.3c-2-2.1-3.8-4.4-5.4-6.9c-1.5-2.4-2.9-5-4-7.7c-0.4-0.9,0-1.9,0.8-2.4 l6.1-3.9c-0.8-2.7-1.3-5.4-1.4-8.2l-7.1-1.6c-0.9-0.2-1.6-1-1.6-2c0.2-5.8,1.4-11.5,3.7-16.9c0.4-0.9,1.3-1.4,2.3-1.2l7.1,1.6 c1.3-2.5,2.9-4.7,4.8-6.8l-3.9-6.1c-0.5-0.8-0.4-1.9,0.3-2.5c2.1-2,4.4-3.8,6.9-5.3c2.4-1.6,5-2.9,7.7-4c0.9-0.4,1.9,0,2.4,0.8 l3.9,6.1c2.6-0.8,5.4-1.3,8.2-1.5l1.6-7.1c0.2-0.9,1.1-1.6,2-1.6c5.9,0.2,11.6,1.4,16.9,3.7c0.9,0.4,1.4,1.3,1.2,2.3l-1.6,7.1 c2.4,1.3,4.7,2.9,6.8,4.8l6.1-3.9c0.8-0.5,1.9-0.4,2.5,0.3c2,2.2,3.8,4.5,5.4,6.9c1.6,2.4,2.9,5.1,4,7.8c0.4,0.9,0,1.9-0.8,2.4 l-6.1,3.9c0.8,2.7,1.3,5.4,1.5,8.2l7.1,1.6c0.9,0.2,1.6,1,1.6,2c-0.2,5.9-1.4,11.6-3.7,17c-0.4,0.9-1.3,1.4-2.3,1.2l-7.1-1.6 c-1.3,2.4-2.9,4.7-4.8,6.8l3.9,6.1c0.5,0.8,0.4,1.9-0.3,2.5c-2.1,2-4.4,3.8-6.9,5.4c-2.4,1.5-5,2.9-7.8,4c-0.9,0.4-1.9,0-2.4-0.8 l-3.9-6.1c-2.7,0.8-5.4,1.3-8.2,1.4l-1.6,7.1C179.9,136.7,179.1,137.4,178.2,137.4z M164.3,130.6c4,1.5,8.1,2.4,12.3,2.7l1.5-6.9 c0.2-0.9,1-1.6,1.9-1.6c3.4-0.1,6.8-0.7,10-1.8c0.9-0.3,1.8,0,2.3,0.8l3.8,6c1.9-0.9,3.8-1.9,5.6-3c1.8-1.1,3.5-2.4,5.1-3.8l-3.8-6 c-0.5-0.8-0.4-1.8,0.2-2.5c2.4-2.5,4.3-5.3,5.8-8.4c0.4-0.8,1.3-1.3,2.2-1.1l6.9,1.5c1.5-4,2.4-8.1,2.7-12.3l-6.9-1.5 c-0.9-0.2-1.5-1-1.6-1.9c-0.1-3.4-0.7-6.8-1.8-10c-0.3-0.9,0-1.8,0.8-2.3l6-3.8c-0.9-1.9-1.9-3.8-3-5.6c-1.1-1.7-2.4-3.4-3.8-5.1 l-6,3.8c-0.8,0.5-1.8,0.4-2.5-0.2c-2.5-2.4-5.3-4.3-8.4-5.8c-0.8-0.4-1.3-1.3-1.1-2.2l1.5-6.9c-4-1.5-8.1-2.4-12.3-2.7l-1.5,6.9 c-0.2,0.9-1,1.5-1.9,1.6c-3.5,0.1-6.8,0.7-10.1,1.8c-0.9,0.3-1.8,0-2.3-0.8l-3.8-6c-1.9,0.9-3.8,1.9-5.6,3 c-1.8,1.1-3.5,2.4-5.1,3.8l3.8,6c0.5,0.8,0.4,1.8-0.2,2.5c-2.4,2.5-4.3,5.3-5.8,8.4c-0.4,0.8-1.3,1.3-2.2,1.1l-6.9-1.5 c-1.5,4-2.4,8.1-2.7,12.3l6.9,1.5c0.9,0.2,1.6,1,1.6,1.9c0.1,3.4,0.7,6.8,1.8,10.1c0.3,0.9,0,1.8-0.8,2.3l-6,3.8 c0.9,1.9,1.9,3.8,3,5.6c1.1,1.8,2.4,3.5,3.8,5.1l6-3.8c0.8-0.5,1.8-0.4,2.5,0.2c2.5,2.4,5.3,4.3,8.4,5.8c0.8,0.4,1.3,1.3,1.1,2.2 L164.3,130.6z"></path><path d="M179.4,114.4c-4.6,0-9.2-1.4-13-4c-0.1-0.1-0.2-0.1-0.2-0.2c-2.4-1.7-4.4-3.8-6-6.3c-1.6-2.5-2.7-5.2-3.2-8.2 c0,0,0-0.1,0-0.1c0,0,0-0.1,0-0.1c-1-5.8,0.4-11.9,3.7-16.8c0-0.1,0.1-0.1,0.1-0.2c1.7-2.4,3.8-4.4,6.3-6.1 c2.5-1.6,5.2-2.7,8.1-3.2c0.1,0,0.2,0,0.2,0l0,0c5.8-1,11.9,0.3,16.8,3.7c0.1,0.1,0.2,0.1,0.3,0.2c2.4,1.7,4.4,3.8,6,6.3 c1.6,2.5,2.7,5.2,3.2,8.1c0,0.1,0,0.1,0,0.2c0,0,0,0,0,0c1,5.8-0.3,11.9-3.7,16.8c0,0,0,0.1-0.1,0.1c0,0,0,0.1-0.1,0.1 c-1.7,2.4-3.8,4.4-6.3,6c-2.5,1.6-5.2,2.7-8.1,3.2c0,0-0.1,0-0.1,0c-0.1,0-0.1,0-0.2,0C181.9,114.3,180.6,114.4,179.4,114.4z M160.8,94.8c0,0.1,0,0.2,0.1,0.2c0.4,2.4,1.3,4.7,2.6,6.7c1.3,2.1,3,3.8,5,5.2c0.1,0,0.1,0.1,0.2,0.1c4,2.7,9,3.8,13.7,3 c0,0,0.1,0,0.1,0c0.1,0,0.1,0,0.1,0c2.4-0.4,4.6-1.3,6.7-2.6c2-1.3,3.8-2.9,5.2-4.9c0.1-0.1,0.1-0.2,0.2-0.3c2.7-4,3.8-9,3-13.8 c0,0,0-0.2,0-0.3c-0.5-2.3-1.3-4.6-2.6-6.6c-1.3-2.1-3-3.8-5-5.2c-0.1,0-0.1-0.1-0.2-0.1c-4-2.7-9-3.8-13.7-3c-0.1,0-0.3,0-0.4,0.1 c-2.3,0.5-4.6,1.3-6.6,2.6c-2.1,1.3-3.8,3-5.2,5c0,0-0.1,0.1-0.2,0.2C161.1,85,160,90,160.8,94.8z M201.7,88 C201.7,88,201.7,88,201.7,88C201.7,88,201.7,88,201.7,88z M175.3,69.3L175.3,69.3L175.3,69.3z"></path><path d="M187.7,198.8c-0.8,0-1.5,0-2.3-0.1c-2.5-0.3-5-1.1-7.2-2.3c0,0-0.1-0.1-0.2-0.1c-4.4-2.5-7.8-6.7-9.2-11.6 c0-0.1,0-0.1,0-0.2c-0.7-2.4-0.9-4.9-0.6-7.5c0.3-2.5,1.1-4.9,2.3-7.2c0-0.1,0.1-0.1,0.1-0.2c2.5-4.4,6.7-7.7,11.6-9.2 c0.1,0,0.2,0,0.3-0.1c2.4-0.7,4.9-0.9,7.4-0.6c2.5,0.3,4.9,1.1,7.2,2.3c0.1,0,0.1,0.1,0.2,0.1c0,0,0,0,0,0 c4.4,2.5,7.8,6.7,9.2,11.6c0,0,0,0.1,0,0.1c0,0,0,0.1,0,0.1c0.7,2.5,0.9,5,0.6,7.5c-0.3,2.5-1.1,4.9-2.3,7.1c0,0,0,0.1,0,0.1 c0,0.1,0,0.1-0.1,0.1c-2.5,4.4-6.7,7.8-11.6,9.2c-0.1,0-0.2,0-0.3,0.1C191.1,198.6,189.4,198.8,187.7,198.8z M180,192.8l0.2,0.1 c1.8,1,3.7,1.6,5.7,1.8c2,0.2,4,0.1,6-0.5c0.1,0,0.1,0,0.2,0c3.8-1.1,7.2-3.7,9.1-7.2c0,0,0-0.1,0.1-0.1c0,0,0-0.1,0.1-0.1 c1-1.7,1.6-3.7,1.8-5.7c0.2-2,0.1-4-0.4-5.9c0-0.1-0.1-0.2-0.1-0.3c-1.1-3.8-3.8-7.2-7.3-9.1c0,0-0.1-0.1-0.2-0.1 c-1.7-0.9-3.6-1.5-5.6-1.8c-2-0.2-4-0.1-6,0.5c-0.1,0-0.1,0-0.2,0c-3.8,1.1-7.2,3.7-9.2,7.2c-0.1,0.1-0.1,0.2-0.2,0.3 c-0.9,1.7-1.5,3.6-1.7,5.6c-0.2,2-0.1,4,0.5,6c0,0,0,0.1,0.1,0.2C173.9,187.5,176.5,190.8,180,192.8z M206.5,174.1L206.5,174.1 L206.5,174.1z M206.4,173.8C206.4,173.8,206.4,173.8,206.4,173.8C206.4,173.8,206.4,173.8,206.4,173.8z M197.4,162.4 C197.4,162.4,197.4,162.4,197.4,162.4C197.4,162.4,197.4,162.4,197.4,162.4z"></path><path d="M87.1,180.9c-2,0-4-0.2-5.9-0.6c0,0-0.1,0-0.1,0c-0.1,0-0.2,0-0.2,0c-7.5-1.6-14.3-6.3-18.6-12.7 c-0.1-0.1-0.1-0.2-0.2-0.3c-2.1-3.2-3.5-6.7-4.2-10.6c-0.7-3.8-0.7-7.7,0.1-11.5l0-0.2c0,0,0-0.1,0-0.1c1.6-7.5,6.3-14.3,12.7-18.6 c0.1,0,0.1-0.1,0.2-0.1c0,0,0.1,0,0.1-0.1c3.2-2.1,6.8-3.5,10.6-4.2c3.8-0.7,7.6-0.7,11.4,0.1c0.1,0,0.2,0,0.3,0.1c0,0,0,0,0,0 c7.5,1.6,14.3,6.2,18.6,12.7c0.1,0.1,0.1,0.2,0.2,0.3c2.1,3.2,3.5,6.7,4.2,10.5c0.7,3.8,0.7,7.6-0.1,11.4c0,0.1,0,0.2-0.1,0.3 c0,0,0,0.1,0,0.1c-1.6,7.5-6.3,14.3-12.7,18.6c0,0-0.1,0.1-0.1,0.1c0,0-0.1,0.1-0.1,0.1c-3.3,2.1-6.8,3.5-10.6,4.2 C90.7,180.7,88.9,180.9,87.1,180.9z M81.6,176.3c0.1,0,0.1,0,0.2,0c0.1,0,0.1,0,0.2,0c3.2,0.7,6.6,0.7,9.9,0.1 c3.3-0.6,6.3-1.8,9.1-3.6c0.1-0.1,0.3-0.2,0.4-0.2c5.5-3.7,9.5-9.5,10.9-16c0-0.1,0-0.2,0.1-0.4c0.6-3.2,0.6-6.5,0-9.8 c-0.6-3.3-1.9-6.4-3.7-9.2c0-0.1-0.1-0.1-0.1-0.2c-3.7-5.6-9.5-9.6-16-11c-0.2,0-0.3-0.1-0.5-0.1c-3.2-0.6-6.5-0.6-9.8,0 c-3.3,0.6-6.4,1.9-9.2,3.7c-0.1,0-0.2,0.1-0.3,0.2c-5.5,3.7-9.5,9.5-10.9,15.9c0,0.1,0,0.2,0,0.3c-0.7,3.3-0.7,6.6-0.1,9.9 c0.6,3.3,1.9,6.4,3.7,9.2c0,0.1,0.1,0.1,0.1,0.2C69.2,170.9,75.1,174.9,81.6,176.3z M103.4,176C103.4,176,103.4,176,103.4,176 C103.4,176,103.4,176,103.4,176z M116.1,157.5C116.1,157.5,116.1,157.5,116.1,157.5C116.1,157.5,116.1,157.5,116.1,157.5z M93.5,122.1C93.5,122.1,93.5,122.1,93.5,122.1C93.5,122.1,93.5,122.1,93.5,122.1z"></path><path d="M235.6,207.3h-20.8c0.8-0.8,1.7-1.7,2.4-2.6c0.6-0.7,0.7-1.8,0.1-2.5l-3.7-4.6c1.3-1.8,2.4-3.7,3.2-5.8l5.8,0.7 c1,0.1,1.9-0.5,2.1-1.4c0.8-2.4,1.3-4.8,1.6-7.3c0.3-2.5,0.3-5,0.2-7.4c-0.1-1-0.8-1.7-1.8-1.8l-5.8-0.7c-0.4-2.2-1-4.3-1.8-6.4 l4.6-3.6c0.8-0.6,1-1.6,0.5-2.5c-2.3-4.4-5.4-8.4-9.2-11.6c-0.7-0.6-1.8-0.6-2.5-0.1l-4.6,3.7c-1.8-1.3-3.8-2.4-5.8-3.2l0.7-5.8 c0.1-1-0.5-1.8-1.4-2.1c-2.4-0.7-4.8-1.3-7.3-1.6c-2.4-0.3-4.9-0.3-7.4-0.2c-1,0.1-1.7,0.8-1.8,1.8l-0.7,5.9c-2.2,0.4-4.3,1-6.4,1.8 l-3.7-4.6c-0.6-0.8-1.6-1-2.5-0.5c-4.4,2.3-8.3,5.4-11.6,9.2c-0.6,0.7-0.7,1.8-0.1,2.5l3.7,4.6c-1.3,1.8-2.4,3.8-3.2,5.8l-5.9-0.7 c-1-0.1-1.9,0.5-2.1,1.4c-0.7,2.4-1.3,4.8-1.5,7.3c-0.3,2.4-0.3,4.9-0.2,7.4c0.1,1,0.8,1.7,1.8,1.8l5.9,0.7c0.4,2.2,1,4.3,1.8,6.4 l-4.6,3.7c-0.8,0.6-1,1.6-0.5,2.5c2,3.8,4.5,7.1,7.5,10.1h-51c0.7-0.4,1.2-1.3,1-2.1l-1.9-10c3.6-1.8,7-4,10-6.5l8.4,5.8 c0.8,0.5,1.9,0.4,2.5-0.2c5.5-5.5,9.9-11.9,13-19c0.4-0.9,0.1-1.9-0.7-2.4l-8.4-5.8c1.3-3.8,2.1-7.7,2.5-11.7l10-1.9 c0.9-0.2,1.6-1,1.6-2c0-3.9-0.3-7.7-1-11.5c-0.7-3.7-1.8-7.4-3.2-11.1c-0.3-0.9-1.3-1.4-2.2-1.2l-10,1.9c-1.8-3.6-4-7-6.5-10 l5.8-8.4c0.5-0.8,0.4-1.9-0.2-2.5c-5.5-5.5-11.8-9.8-19-13c-0.9-0.4-1.9-0.1-2.5,0.7l-5.8,8.4c-3.8-1.3-7.7-2.1-11.7-2.5l-1.9-10 c-0.2-0.9-1-1.6-2-1.6c-3.8,0-7.7,0.3-11.5,1c-3.8,0.7-7.5,1.8-11.1,3.2c-0.9,0.3-1.4,1.3-1.2,2.2l1.9,10c-3.6,1.8-7,4-10,6.6 l-8.4-5.8c-0.8-0.5-1.9-0.4-2.5,0.2c-5.5,5.5-9.9,11.9-13,18.9c-0.4,0.9-0.1,1.9,0.7,2.4l8.4,5.8c-1.3,3.8-2.1,7.7-2.5,11.7l-10,1.9 c-0.9,0.2-1.6,1-1.6,2c0,3.9,0.3,7.7,1,11.5c0.7,3.7,1.8,7.5,3.2,11.1c0.3,0.9,1.3,1.4,2.2,1.2l10-1.9c1.8,3.6,4,7,6.5,10l-5.8,8.4 c-0.5,0.8-0.4,1.9,0.2,2.5c5.5,5.5,11.8,9.9,18.9,13c0.9,0.4,1.9,0.1,2.5-0.7l5.8-8.4c3.8,1.3,7.7,2.1,11.7,2.5l1.4,7.3H20.4 c-2.2,0-4,1.8-4,4s1.8,4,4,4h154.2c0.2,0.5,0.7,1,1.3,1.2c2.4,0.8,4.8,1.3,7.3,1.6c1.5,0.2,3,0.3,4.6,0.3c1,0,1.9,0,2.9-0.1 c1-0.1,1.7-0.8,1.8-1.8l0.1-1.1h43c2.2,0,4-1.8,4-4S237.8,207.3,235.6,207.3z M71.1,193.3c-0.2-0.1-0.5-0.1-0.7-0.1 c-0.6,0-1.3,0.3-1.7,0.9l-5.7,8.3c-5.5-2.6-10.6-6.1-15-10.3l5.7-8.3c0.5-0.8,0.5-1.8-0.2-2.5c-3.1-3.5-5.7-7.4-7.6-11.6 c-0.4-0.8-1.3-1.3-2.2-1.1l-9.9,1.8c-1-2.9-1.8-5.9-2.4-8.8c-0.6-3-0.9-6-1-9.1l9.9-1.8c0.9-0.2,1.6-0.9,1.6-1.9 c0.2-4.6,1.2-9.2,2.9-13.6c0.3-0.9,0-1.8-0.7-2.4l-8.3-5.7c2.6-5.5,6.1-10.6,10.3-15l8.3,5.7c0.8,0.5,1.8,0.5,2.5-0.2 c3.5-3.1,7.4-5.7,11.6-7.6c0.8-0.4,1.3-1.3,1.1-2.2L67.9,98c2.9-1,5.8-1.8,8.8-2.4c3-0.6,6-0.9,9.1-1l1.9,9.9 c0.2,0.9,0.9,1.6,1.9,1.6c4.6,0.2,9.2,1.2,13.6,2.9c0.9,0.3,1.8,0,2.4-0.7l5.7-8.3c5.6,2.6,10.6,6.1,15,10.3l-5.7,8.3 c-0.5,0.8-0.5,1.8,0.2,2.5c3.1,3.4,5.7,7.4,7.6,11.6c0.4,0.8,1.3,1.3,2.2,1.1l9.9-1.9c1,2.9,1.8,5.9,2.4,8.8c0.6,3,0.9,6,0.9,9.1 l-9.9,1.8c-0.9,0.2-1.6,0.9-1.6,1.9c-0.2,4.6-1.2,9.2-2.9,13.6c-0.3,0.9,0,1.8,0.7,2.4l8.3,5.7c-2.6,5.5-6.1,10.6-10.3,15l-8.3-5.7 c-0.8-0.5-1.8-0.5-2.5,0.2c-3.5,3.1-7.4,5.7-11.6,7.6c-0.8,0.4-1.3,1.3-1.1,2.2l1.8,9.9c-2.9,1-5.8,1.8-8.8,2.4 c-3,0.6-6,0.9-9.1,0.9l-1.9-9.9c-0.2-0.9-0.9-1.6-1.9-1.6C80,195.9,75.4,194.9,71.1,193.3z M166.8,207.3l2.6-2.1 c1.1,0.8,2.2,1.4,3.4,2.1H166.8z M205.2,209.6l-3.6-4.5c-0.6-0.7-1.6-1-2.4-0.6c-2.6,1.2-5.4,2-8.2,2.3c-0.9,0.1-1.6,0.8-1.7,1.8 l-0.7,5.7c-1.7,0-3.4,0-5-0.2c-1.6-0.2-3.3-0.5-4.9-0.9l0.7-5.7c0.1-0.9-0.4-1.8-1.3-2.1c-2.7-1-5.2-2.4-7.5-4.2 c-0.7-0.6-1.8-0.6-2.5,0l-4.5,3.6c-2.4-2.3-4.5-5-6.2-7.9l4.5-3.6c0.7-0.6,1-1.6,0.6-2.4c-1.2-2.6-2-5.4-2.3-8.2 c-0.1-0.9-0.8-1.6-1.8-1.7l-5.7-0.7c0-1.7,0-3.4,0.2-5c0.2-1.7,0.5-3.3,0.9-4.9l5.7,0.7c0.9,0.1,1.8-0.4,2.1-1.3 c1-2.7,2.4-5.2,4.2-7.5c0.6-0.7,0.6-1.7,0-2.5l-3.6-4.5c2.3-2.5,5-4.5,7.9-6.2l3.6,4.5c0.6,0.7,1.6,1,2.4,0.6c2.6-1.2,5.4-2,8.2-2.3 c0.9-0.1,1.6-0.8,1.7-1.8l0.7-5.7c1.7,0,3.4,0,5,0.2c1.7,0.2,3.3,0.5,4.9,0.9l-0.7,5.7c-0.1,0.9,0.4,1.8,1.3,2.1 c2.7,1,5.2,2.4,7.5,4.2c0.7,0.6,1.8,0.6,2.5,0l4.5-3.6c2.5,2.3,4.5,5,6.2,7.9l-4.5,3.5c-0.7,0.6-1,1.6-0.6,2.4 c1.2,2.6,2,5.4,2.3,8.2c0.1,0.9,0.8,1.6,1.8,1.7l5.7,0.7c0,1.7,0,3.4-0.2,5c-0.2,1.6-0.5,3.3-0.9,4.9l-5.7-0.7 c-0.9-0.1-1.8,0.4-2.1,1.3c-1,2.7-2.4,5.2-4.2,7.5c-0.6,0.7-0.6,1.8,0,2.5l3.6,4.5C210.8,205.8,208.1,207.9,205.2,209.6z"></path></g></svg>