<?xml version="1.0" encoding="UTF-8" standalone="no"?>
<!-- Created with Inkscape (http://www.inkscape.org/) -->

<svg
   xmlns:dc="http://purl.org/dc/elements/1.1/"
   xmlns:cc="http://creativecommons.org/ns#"
   xmlns:rdf="http://www.w3.org/1999/02/22-rdf-syntax-ns#"
   xmlns:svg="http://www.w3.org/2000/svg"
   xmlns="http://www.w3.org/2000/svg"
   xmlns:sodipodi="http://sodipodi.sourceforge.net/DTD/sodipodi-0.dtd"
   xmlns:inkscape="http://www.inkscape.org/namespaces/inkscape"
   version="1.1"
   id="svg2"
   xml:space="preserve"
   width="173.97333"
   height="202.29333"
   viewBox="0 0 173.97333 202.29333"
   sodipodi:docname="Wappen_4-farbig.svg"
   inkscape:version="0.92.4 (5da689c313, 2019-01-14)"><metadata
     id="metadata8"><rdf:RDF><cc:Work
         rdf:about=""><dc:format>image/svg+xml</dc:format><dc:type
           rdf:resource="http://purl.org/dc/dcmitype/StillImage" /><dc:title></dc:title></cc:Work></rdf:RDF></metadata><defs
     id="defs6" /><sodipodi:namedview
     pagecolor="#ffffff"
     bordercolor="#666666"
     borderopacity="1"
     objecttolerance="10"
     gridtolerance="10"
     guidetolerance="10"
     inkscape:pageopacity="0"
     inkscape:pageshadow="2"
     inkscape:window-width="1920"
     inkscape:window-height="1001"
     id="namedview4"
     showgrid="false"
     inkscape:zoom="3.2997073"
     inkscape:cx="49.089924"
     inkscape:cy="120.06133"
     inkscape:window-x="-9"
     inkscape:window-y="-9"
     inkscape:window-maximized="1"
     inkscape:current-layer="g10" /><g
     id="g10"
     inkscape:groupmode="layer"
     inkscape:label="ink_ext_XXXXXX"
     transform="matrix(1.3333333,0,0,-1.3333333,0,202.29333)"><g
       id="g12"
       transform="scale(0.1)"><path
         d="M 648.77,20 C 20,20 20,691.238 20,691.238 V 856.016 H 1284.8 V 691.238 c 0,0 -7.26,-671.238 -636.03,-671.238"
         style="fill:#ffffff;fill-opacity:1;fill-rule:nonzero;stroke:none"
         id="path14"
         inkscape:connector-curvature="0" /><path
         d="m 976.727,1497.17 v -308.7 h 307.753 l -0.06,58.13 H 1033.6 v 250.57 h -56.873"
         style="fill:#176fc1;fill-opacity:1;fill-rule:evenodd;stroke:none"
         id="path16"
         inkscape:connector-curvature="0" /><path
         d="m 976.727,1172.21 -0.028,-301.194 h 56.901 v 242.804 l 251.2,0.01 v 58.38 H 976.727"
         style="fill:#fab20b;fill-opacity:1;fill-rule:evenodd;stroke:none"
         id="path18"
         inkscape:connector-curvature="0" /><path
         d="M 902.344,1246.6 H 659.266 v -58.13 h 302.461 v 308.7 H 902.344 V 1246.6"
         style="fill:#fab20b;fill-opacity:1;fill-rule:evenodd;stroke:none"
         id="path20"
         inkscape:connector-curvature="0" /><path
         d="m 659.266,1172.21 v -58.38 l 243.078,-0.01 V 871.016 h 58.125 V 1172.21 H 659.266"
         style="fill:#176fc1;fill-opacity:1;fill-rule:evenodd;stroke:none"
         id="path22"
         inkscape:connector-curvature="0" /><path
         d="M 659.266,1497.17 V 1261.6 h 228.078 v 235.57 H 659.266"
         style="fill:#176fc1;fill-opacity:1;fill-rule:evenodd;stroke:none"
         id="path24"
         inkscape:connector-curvature="0" /><path
         d="M 1048.6,1497.17 V 1261.6 h 235.57 v 235.57 H 1048.6"
         style="fill:#fab20b;fill-opacity:1;fill-rule:evenodd;stroke:none"
         id="path26"
         inkscape:connector-curvature="0" /><path
         d="M 659.266,1098.84 V 871.016 l 228.078,-0.02 V 1098.84 H 659.266"
         style="fill:#fab20b;fill-opacity:1;fill-rule:evenodd;stroke:none"
         id="path28"
         inkscape:connector-curvature="0" /><path
         d="M 1284.34,1098.84 H 1048.6 V 870.996 l 236.2,0.02 -0.46,227.824"
         style="fill:#176fc1;fill-opacity:1;fill-rule:evenodd;stroke:none"
         id="path30"
         inkscape:connector-curvature="0" /><path
         d="M 644.266,871.016 H 335.57 V 1497.17 H 644.266 V 871.016"
         style="fill:#ffffff;fill-opacity:1;fill-rule:nonzero;stroke:none"
         id="path32"
         inkscape:connector-curvature="0" /><path
         d="m 685.684,779.941 c -4.883,0.774 -17.832,-1.562 -22.071,-2.668 -4.64,-1.218 -16.816,-5.867 -17.539,-10.398 -0.715,-4.531 3.281,-6.445 6.922,-6.086 0.82,0.09 1.484,0.098 2.227,0.149 -2.774,2.48 -4.571,5.671 -0.145,8.378 8.582,5.243 28.953,5.071 28.953,5.071 0,0 1.145,-0.032 2.793,-0.129 0.371,2.39 1.465,5.273 -1.14,5.683"
         style="fill:#ed1c24;fill-opacity:1;fill-rule:evenodd;stroke:none"
         id="path34"
         inkscape:connector-curvature="0" /><path
         d="m 711.484,774.504 c -2.539,0.293 -3.847,-1.77 -5,-4.191 3.758,-1.434 7.313,-3.36 9.981,-6.008 2.703,-2.684 5.281,-5.211 7.637,-7.508 0.918,1.133 1.796,2.336 2.5,3.75 1.621,3.281 -7.813,13.094 -15.118,13.957"
         style="fill:#ed1c24;fill-opacity:1;fill-rule:evenodd;stroke:none"
         id="path36"
         inkscape:connector-curvature="0" /><path
         d="m 574.762,720.957 c 0,0 -0.125,1.199 -0.903,2.449 -1.48,2.414 -10.175,3.293 -17.879,1.223 -14.648,-3.938 -28.589,-3.672 -43.011,4.617 -4.406,2.531 -9.559,7.774 -11.008,12.805 -2.207,7.625 0.738,15.019 9.023,19.304 7.575,-19.167 25.68,-17.8 41.137,-20.41 11.496,-1.941 23.445,-1.187 35.192,-1.621 11.558,-0.429 22.148,-2.754 28.738,-17.344 l -41.289,-1.023"
         style="fill:#231f20;fill-opacity:1;fill-rule:nonzero;stroke:none"
         id="path38"
         inkscape:connector-curvature="0" /><path
         d="m 711.492,774.504 c -5.086,0.594 -5.215,-8.227 -9.148,-10.492 -3.918,-2.266 -15.762,-1.61 -15.664,9.14 0.019,2.493 2.019,6.313 -0.996,6.789 -4.883,0.774 -17.832,-1.562 -22.071,-2.668 -4.64,-1.218 -16.816,-5.867 -17.531,-10.398 -0.723,-4.531 3.273,-6.445 6.914,-6.086 6.789,0.676 10.617,0.305 15.547,-1.656 5.566,-2.207 12.766,-9.797 22.363,-10.735 12.453,-1.222 29.199,-0.957 35.696,12.157 1.621,3.273 -7.813,13.086 -15.11,13.949 z M 613.699,721.98 c 5.012,0 9.824,4.36 9.824,10.997 0,8.195 -6.515,13.019 -14.668,13.574 -11.667,0.793 -23.39,1.066 -35.093,1.027 -4.621,-0.019 -8.977,-0.383 -7.953,5.848 0.832,5.051 -0.567,12.211 8.777,11.601 7.234,-0.476 14.574,-0.214 21.797,0.469 2.461,0.234 7.066,0.656 7.043,4.25 -0.024,3.457 -4.629,4.785 -7.246,4.719 -5.086,-0.149 -20.067,-2.074 -19.633,0.973 1.726,12.023 5.859,16.359 19.098,18.371 13.242,2.011 39.601,6.152 47.625,8.144 8.027,1.992 10.449,7.227 31.054,11.211 20.606,3.973 24.367,9.637 17.824,28.621 11.934,0.871 15.731,-3.222 22.079,-23.769 9.386,4.933 10.89,11.953 4.972,23.234 8.711,1.18 16.602,-4.324 20.321,-13.789 1.152,-2.93 1.945,-7.715 4.785,-7.863 2.843,-0.157 12.773,-1.2 20.429,3.183 14.602,8.34 24.688,13.75 31.934,-33.074 0.273,-1.777 7.539,13.68 7.051,21.121 -0.43,6.457 1.886,8.848 8.058,8.184 8.192,-0.887 37.969,-2.989 47.45,-0.223 22.07,7.168 16.867,-26.848 16.867,-33.945 1.277,-0.254 2.558,-0.52 3.836,-0.774 2.558,7.309 5.117,14.621 8.183,23.36 15.254,-4.364 30.938,-9.051 46.758,-13.219 3.664,-0.957 8.047,-1.066 11.633,0 10.926,3.23 19.98,-3.137 19.746,-14.672 -0.09,-4.129 -2.297,-19.703 0.086,-25.398 4.609,4.66 7.871,26.355 19.035,19.05 9.551,-5.007 19.069,-10.117 28.899,-14.539 3.76,-1.687 8.37,-2.472 12.49,-2.207 12.44,0.801 19.65,-5.437 18.48,-17.707 -0.52,-5.547 -2.48,-11.004 -4.27,-16.347 -1.36,-4.043 -3.5,-7.821 -5.29,-11.715 0.67,-0.578 1.32,-1.145 1.98,-1.711 3.78,0.488 13.56,10.73 14.89,15.508 51.6,-47.129 37.24,-124.297 5.08,-124.219 30.57,67.949 -95.825,176.269 -300.357,169.414 -2.968,0.066 -7.714,1.016 -9.003,-4.277 -1.278,-5.196 -0.223,-14.219 4.863,-14.532 10.226,-0.644 27.336,-3.183 34.609,3.145 6.965,6.062 15.91,3.848 19.863,-8.945 1.817,-8.692 1.79,-29.051 1.79,-29.051 0,0 9.656,24.461 21.531,20.758 7.851,-2.442 25.187,-6.102 31.379,-1.422 8.289,6.277 20.554,-0.129 20.859,-10.852 0.254,-9.172 -3.566,-29.492 -3.566,-29.492 0,0 15.664,19.688 23.39,16.863 7.715,-2.812 29.317,-14.109 31.856,-12.675 7.734,4.375 13.582,4.015 17.773,-1.258 12.051,-13.282 -2.492,-41.387 -2.492,-41.387 0,0 14.621,22.629 26.398,12.187 8.426,-7.351 19.141,-23.82 34.987,-23.917 9.27,-0.047 12.39,-14.415 5.55,-23.973 -3.8,-5.313 -12.75,-14.973 -12.75,-14.973 0,0 12.37,5.742 17.59,4.824 40.05,-92.144 -31.959,-130.531 -36.431,-118.929 -0.891,3.886 38.241,23.828 6.777,85.933 -22.012,43.457 -67.148,69.434 -113.808,91.2 -41.993,19.601 -127.161,27.113 -130.227,26.437 -0.078,-1.223 -0.164,-2.434 -0.242,-3.652 11.687,-2.668 23.261,-6.297 35.105,-7.754 14.758,-1.809 52.082,-3.223 49.231,-20.949 -1.446,-9.004 -39.621,-9.239 -53.653,-8.075 -10.996,0.907 -21.699,5.86 -32.394,9.473 -4.707,1.594 -8.367,0.984 -10.567,-3.301 -2.195,-4.277 -10.39,-11.875 -0.203,-16.562 7.735,-3.555 16.629,-4.602 24.891,-6.731 -8.887,-15.418 -20.84,-21.015 -38.32,-18.211 -2.422,0.391 -7.118,1.289 -7.813,-2.179 -0.691,-3.477 2.52,-6.239 4.688,-7.118 6.867,-2.793 14.179,-4.511 21.242,-6.621 -5.352,-11.504 -15.832,-15.683 -31.309,-12.695 -2.922,0.566 -7.844,1.238 -9.445,-1.848 -1.602,-3.086 3.019,-7.324 5.664,-8.593 5.801,-2.762 19.707,-6.114 19.707,-6.114 -5.457,-16.453 -28.984,-9.871 -34.063,-13.789 -5.078,-3.914 8.282,-22.039 47.825,-35.175 33.847,-11.239 59.883,-25.247 82.449,-58.086 21.848,12.988 45.305,13.859 69.355,12.449 24.719,-1.442 49.102,-0.629 67.539,21.801 10.11,-43.024 -49.851,-42.903 -50.683,-47.442 13.457,-5.031 25.488,-1.801 42.238,0.11 -8.703,-12.579 -22.707,-18.758 -37.031,-20.2 -18.77,-1.879 -34.277,7.551 -49.719,16.5 -9.578,5.539 -14.48,5.809 -25.223,0.442 23.739,-12.653 48.465,-71.903 56.348,-79.903 11.582,-11.75 17.371,-11.129 28.652,-1.289 6.836,5.961 10.985,5.692 16.543,-1.691 6.297,-8.359 12.305,-15.75 18.114,-25.649 5.812,-9.902 2.949,-27.07 8.761,-34.16 14.129,-18.332 33.68,-38.871 47.782,-57.23 6.97,-9.07 9.12,-20.121 4.7,-31.539 -2.03,-5.242 -4.86,-7.891 -11.39,-7.321 -21.072,1.821 -25.818,-1.64 -34.392,-20.492 -1.203,-2.648 -6.575,-5.5 -9.348,-4.937 -10.801,2.148 -23.867,5.277 -31.875,8.89 -8.008,3.61 -12.664,7.098 -12.957,10.239 -0.293,3.14 49.539,21.261 37.254,55.992 -7.637,21.609 -27.527,38.297 -38.426,41.719 -4.211,-16.52 -2.129,-36.782 -24.98,-42.59 1.472,8.5 4.101,15.808 3.582,22.879 -0.516,7.218 -4.121,14.218 -8.243,20.922 -2.156,-10.563 -4.011,-21.211 -6.562,-31.692 -2.793,-11.488 -10.723,-17.719 -23.563,-21.039 6.766,17.539 11.571,33.598 -1.25,51.168 -3.507,-24.68 -3.261,-49.777 -34.921,-54.68 1.582,2.762 3.027,5.602 4.765,8.25 12.332,18.711 9.59,36.34 1.141,56.641 -8.399,20.172 -18.152,19.309 -33.574,41.129 -16.024,22.691 -20.801,60.359 -27.313,70.062 -9.375,13.938 -33.351,23.02 -62.18,30.75 -1.101,-6.191 -1.699,-12.75 -2.519,-17.351 13.391,-0.68 65.371,-2.262 63.801,-31.84 -0.832,-15.672 3.953,-30.32 13.836,-42.32 5.519,-6.711 2.863,-17.149 -5.594,-22.821 -11.223,-7.519 -26.535,-2.218 -31.231,10.61 -11.484,31.402 6.551,48.84 3.231,52.011 -41.895,-5.992 -138.832,-69.71 -83.231,-96.929 7.508,-3.68 15.45,-5.34 15.743,-10.891 0.554,-10.781 -47.012,-30.922 -67.129,-41.051 -7.395,-3.73 -15.567,-6.097 -23.606,-8.3 -32.191,-8.778 -59.578,-24.508 -78.242,-53.079 -3.582,-5.492 -9.488,-6.902 -14.473,-2.808 -9.863,8.078 -17.906,9.019 -26.093,0.617 -6.52,-6.699 -13.309,-7.109 -20.582,-4.277 -8.715,3.398 -17.59,7.168 -25.129,12.547 -7.594,5.41 -6.184,10.371 0.664,16.89 27.133,25.832 62.429,33.91 96.234,45.61 16.41,5.679 32.188,13.312 47.969,20.671 6.578,3.071 11.187,8.348 9.031,16.079 -8.965,-5.778 -17.234,-13.528 -26.996,-16.731 -9.941,-3.258 -21.586,-4.098 -33.305,3.41 17.176,4.211 32.594,8.641 40.957,24.981 -12.789,-4.981 -24.722,-10.789 -37.3,-14.207 -12.93,-3.524 -30.528,3.359 -35.075,11.41 10.981,1.34 22.297,1.699 33.043,4.359 10.422,2.571 21.68,5.828 24.332,21.098 -23.129,-15.57 -69.265,-23.918 -79.648,6.93 33.148,-11.778 65.816,3.839 72.816,21.91 4.371,11.293 40.25,55.883 137.493,72.953 -1.731,9.5 -3.165,17.449 -4.688,25.828 -65.531,1.289 -105.113,-11.27 -123.562,-30.762 -6.165,-5.84 -10.11,-5.886 -16.082,-1.097 -39.458,31.66 -83.696,53.75 -133.168,64.531 -23.278,5.078 -47.047,7.937 -70.766,2.758 -8.875,-1.942 -17.426,-5.59 -25.914,-8.981 -7.477,-2.98 -12.531,-1.008 -14.61,6.52 -3.875,14.011 -14.777,19.691 -28.042,14.601 -14.258,-5.48 -33.625,-0.129 -43.016,11.875 -6.109,7.801 -4.731,14.61 3.937,19.512 14.45,8.164 30.586,9.481 46.266,8.262 29.965,-2.344 59.75,-6.992 89.672,-10.059 9.922,-1.023 20.293,-1.57 30.012,0.156 21.156,3.77 40.73,-0.144 60.5,-7.375 12.941,-4.734 26.714,-7.265 40.207,-10.39 7.339,-1.707 14.867,-2.617 23.144,-4.031 -7.738,9.472 -16.965,14.511 -28.508,15.457 -13.988,1.156 -15.148,3.273 -9.125,16.156 36.719,84.156 129.942,93.699 158.34,117.047 9.039,7.168 8.641,14.828 13.41,23.75 22.051,-7.34 45.75,-6.864 66.942,9.316 -0.145,1.113 -0.301,2.227 -0.449,3.344 -30.399,-10.168 -39.375,-7.395 -54.969,-1.723 -19.063,6.926 -29.192,3.098 -35.883,-8.515 -12.566,-21.805 -28.621,-34.051 -53.453,-33.633 -28.793,1.386 -24.266,9.14 -13.766,10.812 15.047,2.395 24.785,11.953 31.864,24.754 3.335,6.035 2.554,10.117 -4.239,13.762 -5.004,2.683 -10.988,5.996 -11.574,8.867 -0.586,2.871 3.086,5.117 8.234,5.242 5.153,0.141 36.289,1.074 39.84,1.074"
         style="fill:#231f20;fill-opacity:1;fill-rule:nonzero;stroke:none"
         id="path40"
         inkscape:connector-curvature="0" /><path
         d="m 495.414,604.012 c -10.785,-13.934 -20.988,-27.125 -32.141,-41.532 -7.683,7.286 -46.195,45.157 -79.058,61.907 -22.567,11.5 -41.949,11.953 -63.774,12.703 -6.929,0.246 -14.171,-4.754 -21.054,-7.852 -8.196,-3.683 -13.989,-1.316 -16.684,7.383 -3.754,12.109 -18.41,20.027 -30.039,15.164 -7.781,-3.262 -11.219,-0.222 -13.984,6.192 -4.106,9.55 -9.344,18.781 -12.157,28.695 -3.918,13.766 0.704,18.328 14.649,17.105 54.308,-5.379 132.422,-41.812 144.16,-46.543 2.273,-0.918 5.043,-1.64 7.367,-1.226 25.867,4.547 45.156,-5.93 62.031,-24.789 10.622,-11.875 23.395,-21.832 40.684,-27.207"
         style="fill:#231f20;fill-opacity:1;fill-rule:nonzero;stroke:none"
         id="path42"
         inkscape:connector-curvature="0" /><path
         d="m 381.02,120.672 c -0.911,3.277 27.226,42.406 42.265,64.5 10.254,-3.211 18.871,-6.141 27.633,-8.582 9.387,-2.621 11.453,-5.738 7.461,-15.078 -8.152,-19.043 -24.406,-29.453 -42.543,-36.774 -10.172,-4.109 -33.902,-7.34 -34.816,-4.066"
         style="fill:#231f20;fill-opacity:1;fill-rule:nonzero;stroke:none"
         id="path44"
         inkscape:connector-curvature="0" /><path
         d="m 196.234,512.191 c 6.075,2.911 9.981,1.118 15.493,-1.992 8.527,-4.808 21.25,-9.179 24.91,-10.027 3.656,-0.852 8.277,-0.813 9.07,-3.113 0.801,-2.309 0.231,-6.137 -1.238,-7.778 -4.266,-4.769 -8.098,-7.633 -12.934,-9.152 -27.676,-8.75 -56.41,0.199 -82.492,10.59 0,0 37.512,16.84 47.191,21.472"
         style="fill:#231f20;fill-opacity:1;fill-rule:nonzero;stroke:none"
         id="path46"
         inkscape:connector-curvature="0" /><path
         d="m 151.914,679.93 c 0,0 36.758,1.398 50.441,2.109 12.59,0.664 18.387,-1.578 21.364,-13.211 1.058,-4.14 4.152,-7.765 6.347,-11.601 4.356,-7.598 1.95,-14.344 -6.683,-15.274 -7.367,-0.801 -15.266,-0.332 -22.442,1.485 -16.269,4.121 -30.121,12.968 -41.636,25.183 -4.473,4.746 -7.391,11.309 -7.391,11.309"
         style="fill:#231f20;fill-opacity:1;fill-rule:nonzero;stroke:none"
         id="path48"
         inkscape:connector-curvature="0" /><path
         d="m 417.141,191.398 c 0,0 -23.953,-37.668 -37.293,-56.027 -2.715,-3.742 -17.52,-4.91 -18.106,-2.09 -0.586,2.828 47.332,69.379 47.332,69.379 l 8.067,-11.262"
         style="fill:#231f20;fill-opacity:1;fill-rule:nonzero;stroke:none"
         id="path50"
         inkscape:connector-curvature="0" /><path
         d="m 136.258,513.23 c 21.558,7.942 41.617,15.325 61.918,22.793 4.152,-9.519 3.351,-14.441 -6.606,-17.031 -10.297,-2.672 -20.367,-6.793 -29.965,-11.461 -9.55,-4.64 -16.617,-1.89 -25.347,5.699"
         style="fill:#231f20;fill-opacity:1;fill-rule:nonzero;stroke:none"
         id="path52"
         inkscape:connector-curvature="0" /><path
         d="m 158.461,704.219 38.348,-0.098 c 0,0 8.468,0.098 14.929,-2.324 2.227,-0.828 5.348,-4.082 5.348,-6.524 0,-2.429 -3.988,-4.011 -5.996,-4.035 l -46.375,0.782 c -3.285,0.226 -8.106,5.695 -9.356,8.085 -2.183,4.18 3.102,4.114 3.102,4.114"
         style="fill:#231f20;fill-opacity:1;fill-rule:nonzero;stroke:none"
         id="path54"
         inkscape:connector-curvature="0" /><path
         d="m 897.43,122.789 c -2.676,2.75 23.457,54.43 25.488,59.34 2.031,4.902 4.16,7.191 9.844,5.152 8.301,-2.972 16.828,-5.32 25.312,-7.75 7.246,-2.082 8.985,-6.832 5.899,-13.062 -8.203,-16.539 -29.668,-31.52 -38.289,-34.91 -8.633,-3.399 -25.586,-11.52 -28.254,-8.77"
         style="fill:#231f20;fill-opacity:1;fill-rule:nonzero;stroke:none"
         id="path56"
         inkscape:connector-curvature="0" /><path
         d="m 877.148,132.219 c -1.464,3.172 28.192,61.082 29.844,62.57 6.844,6.18 12.09,-2.41 9.793,-6.258 -7.461,-17.082 -18.699,-42.312 -23.582,-50.691 -4.883,-8.379 -14.59,-8.809 -16.055,-5.621"
         style="fill:#231f20;fill-opacity:1;fill-rule:nonzero;stroke:none"
         id="path58"
         inkscape:connector-curvature="0" /><path
         d="m 574.762,720.957 c 0,0 -0.125,1.199 -0.903,2.449 -1.48,2.414 -10.175,3.293 -17.879,1.223 -14.648,-3.938 -28.589,-3.672 -43.011,4.617 -4.406,2.531 -9.559,7.774 -11.008,12.805 -2.207,7.625 0.738,15.019 9.023,19.304 7.575,-19.167 25.68,-17.8 41.137,-20.41 11.496,-1.941 23.445,-1.187 35.192,-1.621 11.558,-0.429 22.148,-2.754 28.738,-17.344 l -41.289,-1.023"
         style="fill:#ed1c24;fill-opacity:1;fill-rule:nonzero;stroke:none"
         id="path60"
         inkscape:connector-curvature="0" /><path
         d="m 694.355,449.551 c 0,-5.391 -3.007,-9.77 -6.71,-9.77 -3.711,0 -6.707,4.379 -6.707,9.77 0,8.668 2.996,9.777 6.707,9.777 3.703,0 6.71,-2.047 6.71,-9.777"
         style="fill:#ed1c24;fill-opacity:1;fill-rule:evenodd;stroke:none"
         id="path62"
         inkscape:connector-curvature="0" /><path
         d="M 1284.8,691.238 C 1284.8,691.238 1277.54,20 648.77,20 20,20 20,691.238 20,691.238 V 856.016 H 1284.8 Z M 335.57,1497.17 H 644.266 V 871.016 H 335.57 Z M 659.266,1098.84 H 887.344 V 871.016 H 659.266 Z m 0,73.37 H 960.469 V 871.016 H 902.344 V 1113.82 H 659.266 Z m 0,74.39 h 243.078 v 250.57 h 59.383 v -308.7 h -1.258 -301.203 z m 0,250.57 H 887.344 V 1261.6 H 659.266 Z M 1048.6,1098.84 h 235.74 l 0.46,-227.824 h -236.2 z m -71.873,73.37 v 0 h 307.763 l 0.07,-58.39 H 1033.6 V 871.016 h -56.873 z m 0,324.96 H 1033.6 V 1246.6 h 250.82 l 0.06,-58.13 H 976.727 Z m 71.873,0 h 235.57 V 1261.6 H 1048.6 Z M 0,1517.17 V 691.238 C 0,684.211 0.917969,517.02 80.4883,347.141 154.656,188.77 313.457,0 648.77,0 c 335.214,0 495.99,188.68 571.83,346.969 81.4,169.859 84.13,337.023 84.19,344.054 l 0.01,826.147 H 0"
         style="fill:#231f20;fill-opacity:1;fill-rule:nonzero;stroke:none"
         id="path64"
         inkscape:connector-curvature="0" /></g></g></svg>