<?xml version="1.0" standalone="no"?><!DOCTYPE svg PUBLIC "-//W3C//DTD SVG 1.1//EN" "http://www.w3.org/Graphics/SVG/1.1/DTD/svg11.dtd" [<!ENTITY nbsp "&#160;">]><svg id="open_icon" xmlns="http://www.w3.org/2000/svg" viewBox="0 0 256 256" version="1.1" xmlns:xlink="http://www.w3.org/1999/xlink" width="256" height="256"><title>Tablet</title><g fill="#DC6027"><path d="M235.6,207.3h-90.2l35.7-6.9c5.4-1.1,9-6.3,7.9-11.7l-4.9-25.4c-0.2-1.1-1.3-1.8-2.3-1.6c-1.1,0.2-1.8,1.3-1.6,2.3l1.9,10 L81.6,193.5L62.5,94.9l100.4-19.5l3.1,15.7c0.2,1.1,1.3,1.8,2.3,1.6c1.1-0.2,1.8-1.3,1.6-2.3l-4.9-25.2c-1.1-5.4-6.3-9-11.7-7.9 L64.6,74.4c-5.4,1.1-9,6.3-7.9,11.7l23.6,121.2H20.4c-2.2,0-4,1.8-4,4s1.8,4,4,4H84c1.8,1.6,4.1,2.5,6.6,2.5c0.6,0,1.3-0.1,1.9-0.2 l11.8-2.3h131.4c2.2,0,4-1.8,4-4S237.8,207.3,235.6,207.3z M60.6,85.4c-0.6-3.2,1.5-6.4,4.7-7l88.6-17.2c3.3-0.6,6.4,1.5,7,4.7 l1.1,5.6L61.7,91L60.6,85.4z M91.7,213.7c-1.6,0.3-3.2,0-4.5-0.9s-2.2-2.3-2.5-3.8l-0.3-1.6h0l-1.9-9.9l0,0l0,0l100.4-19.5l2.2,11.6 c0.1,0.4,0.1,0.8,0.1,1.2c0,2.8-2,5.3-4.9,5.8l-55.9,10.9h-0.1L91.7,213.7z"></path><path d="M109,78.1c-0.9,0-1.8-0.7-2-1.6c-0.2-1.1,0.5-2.1,1.6-2.3l10.7-2.1c1.1-0.2,2.1,0.5,2.3,1.6c0.2,1.1-0.5,2.1-1.6,2.3 L109.4,78C109.3,78,109.2,78.1,109,78.1z"></path><path d="M101.8,79.5c-0.1,0-0.3,0-0.4,0c-0.1,0-0.3-0.1-0.4-0.1s-0.2-0.1-0.3-0.2c-0.1-0.1-0.2-0.2-0.3-0.2 c-0.1-0.1-0.2-0.2-0.2-0.3c-0.1-0.1-0.1-0.2-0.2-0.3s-0.1-0.2-0.1-0.4c0-0.1,0-0.3,0-0.4c0-0.1,0-0.3,0-0.4c0-0.1,0.1-0.2,0.1-0.4 c0-0.1,0.1-0.2,0.2-0.3c0.1-0.1,0.2-0.2,0.2-0.3c0.1-0.1,0.2-0.2,0.3-0.2c0.1-0.1,0.2-0.1,0.3-0.2c0.1,0,0.2-0.1,0.4-0.1 c0.6-0.1,1.3,0.1,1.8,0.5c0.1,0.1,0.2,0.2,0.2,0.3c0.1,0.1,0.1,0.2,0.2,0.3c0,0.1,0.1,0.2,0.1,0.4c0,0.1,0,0.3,0,0.4 c0,0.1,0,0.3,0,0.4c0,0.1-0.1,0.2-0.1,0.4s-0.1,0.2-0.2,0.3c-0.1,0.1-0.1,0.2-0.2,0.3C102.9,79.3,102.4,79.5,101.8,79.5z"></path><path d="M88.9,177.2c-0.9,0-1.8-0.7-2-1.6c-0.2-1.1,0.5-2.1,1.6-2.3l35.7-7c1.1-0.2,2.1,0.5,2.3,1.6c0.2,1.1-0.5,2.1-1.6,2.3 l-35.7,7C89.2,177.2,89,177.2,88.9,177.2z"></path><path d="M147.9,99.2c-0.9,0-1.8-0.7-2-1.6c-0.2-1.1,0.5-2.1,1.6-2.3l4.1-0.8c1.1-0.2,2.1,0.5,2.3,1.6s-0.5,2.1-1.6,2.3l-4.1,0.8 C148.1,99.2,148,99.2,147.9,99.2z"></path><path d="M76.5,113.1c-0.9,0-1.8-0.7-2-1.6c-0.2-1.1,0.5-2.1,1.6-2.3l46.5-9c1.1-0.2,2.1,0.5,2.3,1.6c0.2,1.1-0.5,2.1-1.6,2.3 l-46.5,9C76.7,113.1,76.6,113.1,76.5,113.1z"></path><path d="M82.7,145.2c-0.9,0-1.8-0.7-2-1.6c-0.2-1.1,0.5-2.1,1.6-2.3l54.1-10.5c1.1-0.2,2.1,0.5,2.3,1.6c0.2,1.1-0.5,2.1-1.6,2.3 l-54.1,10.5C82.9,145.2,82.8,145.2,82.7,145.2z"></path><path d="M85.8,161.1c-0.9,0-1.8-0.7-2-1.6c-0.2-1.1,0.5-2.1,1.6-2.3l60.3-11.7c1.1-0.2,2.1,0.5,2.3,1.6c0.2,1.1-0.5,2.1-1.6,2.3 l-60.3,11.7C86,161.1,85.9,161.1,85.8,161.1z"></path><path d="M79.5,129.1c-0.9,0-1.8-0.7-2-1.6c-0.2-1.1,0.5-2.1,1.6-2.3l50.8-9.9c1.1-0.2,2.1,0.5,2.3,1.6c0.2,1.1-0.5,2.1-1.6,2.3 L79.9,129C79.8,129,79.7,129.1,79.5,129.1z"></path><path d="M197.5,110.4l-8.1-8.1c-0.1-0.1-0.2-0.2-0.3-0.4l-7.7-7.7c-2.8-2.8-7.4-2.8-10.2,0c-1.1,1.1-1.7,2.4-2,3.7 c-2.5-0.8-5.3-0.2-7.2,1.8c-1.1,1.1-1.7,2.4-2,3.7c-2.5-0.8-5.3-0.2-7.3,1.8c-0.8,0.8-1.4,1.8-1.7,2.8l-9.9-9.9 c-2.8-2.8-7.4-2.8-10.2,0c-2.8,2.8-2.8,7.4,0,10.2l17.4,17.4c-1,0.3-2,0.9-2.8,1.7c-2.8,2.8-2.8,7.4,0,10.2l8.8,8.8 c0,0,0,0.1,0.1,0.1l3.5,3.5c5.5,5.4,12.6,8.1,19.8,8.1c7.2,0,14.4-2.7,19.8-8.2C208.4,139.1,208.4,121.3,197.5,110.4z M194.6,147.2 c-9.3,9.3-24.6,9.4-33.9,0l-1.5-1.5c0,0,0-0.1-0.1-0.1l-10.8-10.8c-1.2-1.3-1.2-3.3,0-4.5c1.2-1.2,3.3-1.2,4.5,0c0,0,0,0,0.1,0 l5.3,5.3c0.4,0.4,0.9,0.6,1.4,0.6s1-0.2,1.4-0.6c0.8-0.8,0.8-2,0-2.8l-27.3-27.3c-1.2-1.3-1.2-3.3,0-4.5c1.2-1.2,3.3-1.3,4.5,0 l20.1,20.1c0.8,0.8,2,0.8,2.8,0s0.8-2,0-2.8l-2.5-2.5c0,0,0,0,0,0l-3.1-3.1c-1.2-1.3-1.2-3.3,0-4.5c1.2-1.2,3.3-1.2,4.5,0l1.8,1.8 c0,0,0.1,0.1,0.1,0.1l3.1,3.1c0,0,0,0,0.1,0l2.5,2.5c0.8,0.8,2,0.8,2.8,0s0.8-2,0-2.8l-5.7-5.7c-1.2-1.3-1.2-3.2,0-4.5 c1.2-1.2,3.3-1.2,4.5,0l1.8,1.8c0,0,0,0,0.1,0.1l3.1,3.1c0,0,0,0,0,0l2.5,2.5c0.8,0.8,2,0.8,2.8,0c0.8-0.8,0.8-2,0-2.8l-5.7-5.7 c-1.2-1.3-1.2-3.3,0-4.5c1.2-1.2,3.3-1.2,4.5,0l7.4,7.4c0.1,0.1,0.2,0.2,0.3,0.4l8.4,8.4C204,122.6,204,137.8,194.6,147.2z"></path><path d="M134.2,203.4c-3.3,0-6.3-2.4-6.9-5.8c-0.7-3.8,1.8-7.5,5.6-8.3c1.9-0.4,3.7,0,5.3,1.1c1.6,1.1,2.6,2.7,3,4.5s0,3.7-1.1,5.3 s-2.7,2.6-4.5,3C135.1,203.3,134.6,203.4,134.2,203.4z M134.2,193.2c-0.2,0-0.4,0-0.6,0.1c-1.7,0.3-2.8,1.9-2.4,3.6 c0.3,1.7,1.9,2.8,3.6,2.4c0.8-0.2,1.5-0.6,2-1.3s0.6-1.5,0.5-2.3l0,0c-0.2-0.8-0.6-1.5-1.3-2C135.4,193.4,134.8,193.2,134.2,193.2z "></path></g></svg>