<?xml version="1.0" standalone="no"?><!DOCTYPE svg PUBLIC "-//W3C//DTD SVG 1.1//EN" "http://www.w3.org/Graphics/SVG/1.1/DTD/svg11.dtd" [<!ENTITY nbsp "&#160;">]><svg id="open_icon" xmlns="http://www.w3.org/2000/svg" viewBox="0 0 256 256" version="1.1" xmlns:xlink="http://www.w3.org/1999/xlink" width="256" height="256"><title>Liernziele</title><g fill="#DC6027"><path d="M151,86.9c-0.1,0-0.2,0-0.3,0c-1.1-0.1-1.9-1.2-1.7-2.3l1.5-10.9l-93-10.7c-1.1-0.1-1.9-1.1-1.8-2.2 c0.1-1.1,1.1-1.9,2.2-1.8L153,70c0.5,0.1,1,0.3,1.4,0.8c0.3,0.4,0.5,1,0.4,1.5L153,85.2C152.8,86.2,152,86.9,151,86.9z"></path><path d="M43.6,109.4c-0.1,0-0.2,0-0.2,0c-1.1-0.1-1.9-1.1-1.8-2.2L46,68.7c0.1-1.1,1.1-1.9,2.2-1.8l95,10.9c0.5,0.1,1,0.3,1.4,0.8 c0.3,0.4,0.5,1,0.4,1.5l-1,7.2c-0.2,1.1-1.2,1.9-2.3,1.7c-1.1-0.2-1.9-1.2-1.7-2.3l0.7-5.2l-91-10.4l-4.2,36.4 C45.4,108.6,44.6,109.4,43.6,109.4z"></path><path d="M49.5,147.3c-0.9,0-1.8-0.7-2-1.6c-0.2-1.1,0.5-2.1,1.6-2.4l52.4-10.6c1.1-0.2,2.1,0.5,2.4,1.6s-0.5,2.1-1.6,2.4 l-52.4,10.6C49.8,147.2,49.6,147.3,49.5,147.3z"></path><path d="M52.3,158.9c-0.9,0-1.8-0.7-2-1.6c-0.2-1.1,0.5-2.1,1.6-2.4l52-10.5c1.1-0.2,2.1,0.5,2.4,1.6s-0.5,2.1-1.6,2.4l-52,10.5 C52.6,158.9,52.4,158.9,52.3,158.9z"></path><path d="M46.8,135.6c-0.9,0-1.8-0.7-2-1.6c-0.2-1.1,0.5-2.1,1.6-2.4L98.8,121c1.1-0.2,2.1,0.5,2.4,1.6s-0.5,2.1-1.6,2.4 l-52.4,10.6C47,135.6,46.9,135.6,46.8,135.6z"></path><path d="M57.4,182.3c-0.9,0-1.8-0.7-2-1.6c-0.2-1.1,0.5-2.1,1.6-2.4l52.4-10.6c1.1-0.2,2.1,0.5,2.4,1.6s-0.5,2.1-1.6,2.4 l-52.4,10.6C57.7,182.3,57.5,182.3,57.4,182.3z"></path><path d="M59.8,194c-0.9,0-1.8-0.7-2-1.6c-0.2-1.1,0.5-2.1,1.6-2.4l52.4-10.6c1.1-0.2,2.1,0.5,2.4,1.6s-0.5,2.1-1.6,2.4L60.2,194 C60,194,59.9,194,59.8,194z"></path><path d="M54.6,170.6c-0.9,0-1.8-0.7-2-1.6c-0.2-1.1,0.5-2.1,1.6-2.4l52.4-10.6c1.1-0.2,2.1,0.5,2.4,1.6c0.2,1.1-0.5,2.1-1.6,2.4 L55,170.6C54.9,170.6,54.8,170.6,54.6,170.6z"></path><path d="M162.5,137.5C162.5,137.6,162.5,137.6,162.5,137.5c-0.5,0.7-0.7,1.6-0.6,2.5c0,0,0,0.1,0,0.1 c0.1,0.4,0.2,0.8,0.5,1.1c0.2,0.3,0.5,0.6,0.8,0.9c0,0,0.1,0,0.1,0.1c0.6,0.4,1.2,0.6,1.9,0.6c0.2,0,0.4,0,0.6,0c0,0,0,0,0,0 c0,0,0,0,0,0c0.4-0.1,0.8-0.2,1.2-0.5c0.4-0.2,0.7-0.5,0.9-0.9c0,0,0,0,0,0c0.5-0.7,0.7-1.6,0.5-2.4c0,0,0-0.1,0-0.1 c-0.1-0.4-0.2-0.8-0.5-1.2c-0.1-0.2-0.3-0.4-0.5-0.6l9.1-67.7l10.1-10.7c0.3-0.3,0.5-0.7,0.5-1.1l3-22.7c0.1-0.9-0.3-1.7-1.1-2.1 c-0.8-0.4-1.7-0.2-2.3,0.4l-8.5,9l-5.9-11c-0.4-0.8-1.3-1.2-2.1-1c-0.9,0.2-1.5,0.8-1.6,1.7l-3.2,22.7c-0.1,0.4,0,0.8,0.2,1.2 l6.9,13l-9.1,67.7c-0.1,0-0.1,0.1-0.2,0.1C163.1,136.9,162.8,137.2,162.5,137.5z M183.5,56.4l-5.9,6.2l2.2-16.1l5.8-6.1L183.5,56.4 z M169.6,54.5l2.2-16l4,7.4l-2.2,16.1L169.6,54.5z"></path><path d="M158.2,134.5c0.6-0.9,1.5-1.7,2.4-2.3c0.2-0.1,0.4-0.3,0.6-0.4c1-0.5,1.3-1.7,0.8-2.7c-0.5-1-1.7-1.3-2.7-0.8 c-0.3,0.2-0.6,0.3-0.9,0.5c-1.4,0.9-2.6,2-3.5,3.4c0,0-0.1,0.1-0.1,0.1c-1.9,2.7-2.6,6.1-2.1,9.3c0,0,0,0.1,0,0.1 c0.3,1.6,0.9,3.1,1.8,4.5c0.9,1.4,2,2.5,3.3,3.5c0,0,0.1,0.1,0.2,0.1c2.1,1.5,4.7,2.2,7.2,2.2c0.7,0,1.4-0.1,2.1-0.2 c0,0,0.1,0,0.1,0c0,0,0,0,0,0c1.6-0.3,3.1-0.9,4.5-1.8c1.4-0.9,2.6-2,3.5-3.4c0,0,0,0,0-0.1c0,0,0,0,0-0.1c1.9-2.7,2.6-6.1,2.1-9.3 c0-0.1,0-0.1,0-0.2c-0.3-1.6-0.9-3.1-1.8-4.5c-0.6-0.9-1.3-1.8-2.1-2.5c-0.8-0.7-2.1-0.7-2.8,0.1c-0.7,0.8-0.7,2.1,0.1,2.8 c0.6,0.5,1.1,1.1,1.5,1.7c0.6,0.9,1,1.9,1.2,3c0,0.1,0,0.2,0,0.2c0.4,2.2-0.1,4.5-1.4,6.3c-0.1,0.1-0.1,0.1-0.1,0.2 c-0.6,0.9-1.4,1.6-2.4,2.2c-1,0.6-2,1-3.1,1.2c-0.1,0-0.1,0-0.1,0c0,0,0,0,0,0c-2.2,0.4-4.5-0.1-6.3-1.4c0,0-0.1-0.1-0.1-0.1 c-0.9-0.6-1.7-1.4-2.3-2.4c-0.6-1-1-2-1.2-3.1l0-0.1c-0.4-2.2,0.1-4.5,1.4-6.3C158.1,134.6,158.1,134.5,158.2,134.5z"></path><path d="M161,116.6c-3,0.6-5.8,1.7-8.3,3.3c-2.6,1.7-4.8,3.7-6.5,6.2c0,0.1-0.1,0.1-0.1,0.2c-3.4,5-4.8,11.2-3.8,17.2 c0,0,0,0.1,0,0.1c0,0,0,0.1,0,0.1c0.5,3,1.6,5.8,3.3,8.4c1.6,2.6,3.7,4.7,6.1,6.4c0.1,0.1,0.2,0.1,0.3,0.2 c3.9,2.7,8.6,4.1,13.3,4.1c1.3,0,2.6-0.1,3.9-0.3c0.1,0,0.1,0,0.2,0c0,0,0.1,0,0.1,0c2.9-0.5,5.7-1.6,8.3-3.3 c2.6-1.6,4.7-3.7,6.5-6.2c0,0,0-0.1,0.1-0.1c0,0,0.1-0.1,0.1-0.1c3.4-5,4.8-11.2,3.8-17.2c0,0,0,0,0,0c0-0.1,0-0.2,0-0.2 c-0.6-3-1.7-5.8-3.3-8.3c-1.6-2.6-3.7-4.7-6.1-6.4c-0.1-0.1-0.2-0.1-0.3-0.2c-1.1-0.7-2.3-1.4-3.6-2c-1-0.5-2.2,0-2.6,1 c-0.5,1,0,2.2,1,2.6c1.1,0.5,2.1,1.1,3,1.7c0.1,0,0.1,0.1,0.2,0.1c2,1.4,3.8,3.2,5.1,5.4c1.3,2.1,2.2,4.4,2.7,6.8 c0,0.2,0,0.3,0.1,0.3c0.8,4.9-0.3,10.1-3.1,14.2c-0.1,0.1-0.1,0.2-0.2,0.3c-1.4,2-3.2,3.7-5.3,5c-2.1,1.4-4.5,2.3-6.9,2.7 c-0.1,0-0.1,0-0.2,0c0,0-0.1,0-0.1,0c-4.9,0.8-10.1-0.3-14.2-3.1c-0.1-0.1-0.1-0.1-0.2-0.1c-2-1.4-3.7-3.2-5.1-5.4 c-1.4-2.1-2.3-4.5-2.7-6.9c0-0.1,0-0.1-0.1-0.3c-0.8-4.9,0.3-10,3.1-14.1c0.1-0.1,0.1-0.2,0.2-0.2c1.4-2,3.2-3.8,5.4-5.1 c2.1-1.3,4.4-2.3,6.9-2.7c1.1-0.2,1.8-1.3,1.6-2.3C163.1,117.1,162.1,116.4,161,116.6z"></path><path d="M198.7,133.7C198.7,133.7,198.7,133.7,198.7,133.7c0-0.2,0-0.3-0.1-0.4c-0.8-4.3-2.4-8.4-4.8-12.1 c-2.4-3.7-5.4-6.9-9-9.4c-0.1-0.1-0.2-0.2-0.4-0.3c-1.9-1.3-4.1-2.5-6.3-3.4c-1-0.4-2.2,0.1-2.6,1.1c-0.4,1,0.1,2.2,1.1,2.6 c2,0.8,3.8,1.8,5.5,3c0,0,0.1,0.1,0.1,0.1c0.1,0.1,0.1,0.1,0.2,0.1c3.2,2.2,5.8,5,8,8.3c2.1,3.2,3.5,6.8,4.2,10.6 c0,0.2,0.1,0.4,0.1,0.5c1.3,7.6-0.4,15.7-4.8,22c-0.1,0.1-0.2,0.3-0.3,0.4c-2.2,3.1-5,5.8-8.3,7.9c-3.3,2.1-6.9,3.5-10.7,4.2 c-0.1,0-0.1,0-0.2,0c-0.1,0-0.1,0-0.2,0c-7.6,1.3-15.7-0.5-22-4.9c0,0-0.1-0.1-0.1-0.1c-0.1,0-0.1-0.1-0.2-0.1 c-3.1-2.2-5.8-5-8-8.3c-2.1-3.3-3.5-6.9-4.2-10.8c0-0.1,0-0.2-0.1-0.3l0,0c-1.3-7.6,0.5-15.6,4.8-22c0.1-0.1,0.2-0.2,0.2-0.3 c2.2-3.2,5-5.8,8.3-8c3.2-2.1,6.8-3.5,10.6-4.2c0.2,0,0.3,0,0.5-0.1c0.4-0.1,0.8-0.1,1.2-0.2c1.1-0.1,1.9-1.1,1.7-2.2 c-0.1-1.1-1.2-1.9-2.2-1.7c-0.5,0.1-0.9,0.1-1.4,0.2c0,0,0,0-0.1,0c-0.1,0-0.2,0-0.3,0c-4.3,0.8-8.4,2.4-12.2,4.8 c-3.8,2.4-6.9,5.4-9.5,9c0,0-0.1,0.1-0.1,0.1c0,0-0.1,0.1-0.1,0.1c-5,7.2-7,16.4-5.5,25.1c0,0,0,0.1,0,0.1l0.1,0.2 c0.8,4.3,2.4,8.4,4.8,12.2c2.4,3.7,5.4,6.9,9,9.4c0.1,0.1,0.2,0.2,0.3,0.3c5.7,3.9,12.5,6,19.4,6c1.9,0,3.8-0.2,5.7-0.5 c0.1,0,0.2,0,0.2-0.1c0.1,0,0.1,0,0.2,0c4.3-0.8,8.3-2.4,12.1-4.8c3.7-2.4,6.9-5.4,9.5-9c0,0,0.1-0.1,0.1-0.1c0,0,0.1-0.1,0.1-0.2 C198.2,151.6,200.2,142.4,198.7,133.7z"></path><path d="M235.5,207.3h-88.7c0.2-1.1,0.3-2.3,0.2-3.4l78.6-16c0.4-0.1,0.7-0.2,0.9-0.5l0.4-0.3c0.5-0.5,0.8-1.2,0.6-1.9L208,89.5 c-0.1-0.5-0.4-1-0.9-1.3c-0.4-0.3-1-0.4-1.5-0.3l-5.9,1.3l-1.1-5.3c-0.2-1.1-1.3-1.8-2.3-1.6l-17.7,3.5c-1.1,0.2-1.8,1.3-1.6,2.4 s1.3,1.8,2.4,1.6l15.8-3.1l1,5.1c0,0.1,0,0.2,0,0.2c0,0.1,0,0.1,0.1,0.2l17.4,85.5l-68,13.8c0,0-0.1,0-0.1,0c-4.1,0.9-7.6,3.5-9.7,7 L118.2,111c0,0,0-0.1,0-0.1l0.8-2.8c1.1-4.1,4.2-7.1,8.2-8c0,0,0,0,0,0l37.6-7.4c1.1-0.2,1.8-1.3,1.6-2.3c-0.2-1.1-1.3-1.8-2.3-1.6 l-37.5,7.4c-0.1,0-0.2,0-0.4,0.1c-5.2,1.2-9.4,5.2-10.9,10.5c-3.7-4.1-9.2-6-14.4-4.9c0,0-0.1,0-0.1,0L30.8,116 c-0.5,0.1-1,0.4-1.3,0.9s-0.4,1-0.3,1.5l1.1,5.3l-6,1.2c-0.5,0.1-1,0.4-1.3,0.9c-0.3,0.4-0.4,1-0.3,1.5l16.3,80H20.4 c-2.2,0-4,1.8-4,4s1.8,4,4,4h20.3l1.6,7.7c0,0,0,0,0,0c0.2,0.9,1,1.6,2,1.6c0.1,0,0.3,0,0.4,0c0.1,0,0.3-0.1,0.4-0.1l45.4-9.1h38.8 c1.9,1.1,3.9,1.7,6,1.7c0.8,0,1.5-0.1,2.3-0.2c1.3-0.3,2.6-0.8,3.7-1.5h94.2c2.2,0,4-1.8,4-4S237.7,207.3,235.5,207.3z M101.5,105.8 c0.1,0,0.1,0,0.1,0c3.9-0.8,8,0.6,10.8,3.8l1.8,2l2.9,14.5c0,0.1,0,0.2,0,0.3l14.7,73c-3.4-2.5-7.6-3.5-11.7-2.7c0,0-0.1,0-0.1,0 l-68,13.8l-17.3-85.1c0-0.2,0-0.4,0-0.6c0-0.2-0.1-0.4-0.2-0.5l-1-4.8L101.5,105.8z M45.7,220.2l-18.7-91.7l4-0.8l17.4,85.7 c0.1,0.5,0.4,1,0.9,1.3c0.3,0.2,0.7,0.3,1.1,0.3c0.1,0,0.3,0,0.4,0l69.9-14.2c0,0,0.1,0,0.1,0c4-0.8,8.1,0.7,10.7,4l1.8,2.2 c0.3,0.7,1,1.1,1.7,1.2c0,0,0.1,0,0.1,0c0.1,0,0.1,0,0.2,0c0.3,0,0.5-0.1,0.8-0.2c0.7-0.3,1.1-1,1.1-1.8l0.8-2.7 c1.2-4,4.4-7.1,8.3-7.9c0,0,0.1,0,0.1,0l69.9-14.2c1.1-0.2,1.8-1.3,1.6-2.4l-17.4-85.8l4-0.8l18.7,92l-78.7,16 c-0.3,0.1-0.6,0.2-0.8,0.4c-0.7,0.4-1.1,1.3-0.9,2.1l0.1,0.2c0.5,2.2,0.1,4.5-1.1,6.3c-1.1,1.8-2.9,3.1-5,3.5c-2,0.4-4.2,0-5.9-1.3 c-1.8-1.3-3-3.2-3.5-5.4c0-0.1,0-0.1,0-0.2c0-0.2-0.1-0.3-0.1-0.4c-0.3-0.9-1.3-1.5-2.3-1.3L45.7,220.2z"></path></g></svg>