<?xml version="1.0" standalone="no"?><!DOCTYPE svg PUBLIC "-//W3C//DTD SVG 1.1//EN" "http://www.w3.org/Graphics/SVG/1.1/DTD/svg11.dtd" [<!ENTITY nbsp "&#160;">]><svg id="open_icon" xmlns="http://www.w3.org/2000/svg" viewBox="0 0 256 256" version="1.1" xmlns:xlink="http://www.w3.org/1999/xlink" width="256" height="256"><title>Hauptgebäude</title><path fill="#DC6027" d="M235.58,215.28H20.42a4,4,0,1,1,0-8H235.58a4,4,0,0,1,0,8Z"></path><path fill="#DC6027" d="M175.89,186h-96a2,2,0,1,1,0-4h96a2,2,0,0,1,0,4Z"></path><path fill="#DC6027" d="M239.91,100H236.2L225.38,87.38a1.91,1.91,0,0,0-.81-.57l-24-9a1.89,1.89,0,0,0-.7-.13h-33a2,2,0,0,0,0,4H199.5l23.18,8.69,8.26,9.63H178.28a2,2,0,1,0,0,4h55.59c0,8.12,0,51.17,0,61h-62a2,2,0,0,0,0,4h64a2,2,0,0,0,1.41-.59,2,2,0,0,0,.59-1.41l0-63h2a2,2,0,0,0,0-4Z"></path><path fill="#DC6027" d="M183.89,194h-112a2,2,0,1,1,0-4h112a2,2,0,0,1,0,4Z"></path><path fill="#DC6027" d="M137.85,141.41h0l-20-.08a2,2,0,0,1-2-2V120.87a12,12,0,0,1,23.95,0v18.54a2,2,0,0,1-2,2Zm-17.95-2.08h0Zm0-2,15.95.07V120.87a8,8,0,0,0-15.95,0Z"></path><path fill="#DC6027" d="M225.72,58.27H218.6a23.54,23.54,0,0,0-14.81-13.4V41.15a7,7,0,0,0-5-6.68V31.06a2,2,0,0,0-4,0v3.41a7,7,0,0,0-5,6.69v3.71A23.53,23.53,0,0,0,175,58.27h-7.13a2,2,0,0,0-2,2V72.49a2,2,0,1,0,4,0V62.27h6.49a2,2,0,0,0,1.89-1.33,19.59,19.59,0,0,1,14-12.6,2,2,0,0,0,1.54-2V41.16a3,3,0,0,1,6,0v5.23a2,2,0,0,0,1.54,2,19.59,19.59,0,0,1,14,12.6,2,2,0,0,0,1.89,1.33h6.49v19.2a2,2,0,0,0,4,0V60.27A2,2,0,0,0,225.72,58.27Z"></path><path fill="#DC6027" d="M90.87,77.68h-35a1.94,1.94,0,0,0-.71.13l-24,9a1.91,1.91,0,0,0-.81.57L19.53,100H16a2,2,0,0,0,0,4h1.87v63a2,2,0,0,0,2,2h64a2,2,0,0,0,0-4h-62V104H79.13a2,2,0,0,0,0-4H24.8l8.25-9.63,23.18-8.69H90.87a2,2,0,0,0,0-4Z"></path><path fill="#DC6027" d="M170.53,100h-5.25l-4.44-20.42a2,2,0,0,0-.73-1.16l-30.82-24a2,2,0,0,0-2.47,0l-30.18,24a2,2,0,0,0-.68,1L90.36,100H87a2,2,0,1,0,0,4h2.88v70h-2a2,2,0,1,0,0,4h80a2,2,0,0,0,0-4h-2V104h4.64a2,2,0,0,0,0-4ZM99.64,81.16l28.43-22.62,29,22.59L161.19,100H94.5Zm-5.75,33.27a7.9,7.9,0,0,1,4.65-1.51,8,8,0,0,1,8,8V137.4l-12.63-.05ZM106.48,174l-12.59,0V152.17l12.59,0Zm29.57,0-16,0V152.17l16,0Zm25.84,0-12,0V152.17l12,0Zm0-36.61-12,0V120.88a8,8,0,0,1,8-8,7.86,7.86,0,0,1,4,1.1Zm0-27.76a12,12,0,0,0-16,11.25v18.46a2,2,0,0,0,2,2l14,0v6.83l-14-.05a2,2,0,0,0-1.42.59,2,2,0,0,0-.59,1.41V174h-5.83V150.21a2,2,0,0,0-2-2l-20-.05h0a2,2,0,0,0-2,2V174h-5.62V150.21a2,2,0,0,0-2-2l-14.6,0v-6.82l14.62.06h0a2,2,0,0,0,2-2V120.87a12,12,0,0,0-12-12,11.73,11.73,0,0,0-4.65,1V104h68Z"></path><path fill="#DC6027" d="M33.89,123a2,2,0,0,1-2-2v-6a2,2,0,0,1,4,0v6A2,2,0,0,1,33.89,123Z"></path><path fill="#DC6027" d="M48.55,123a2,2,0,0,1-2-2v-6a2,2,0,0,1,4,0v6A2,2,0,0,1,48.55,123Z"></path><path fill="#DC6027" d="M63.22,123a2,2,0,0,1-2-2v-6a2,2,0,0,1,4,0v6A2,2,0,0,1,63.22,123Z"></path><path fill="#DC6027" d="M77.89,123a2,2,0,0,1-2-2v-6a2,2,0,0,1,4,0v6A2,2,0,0,1,77.89,123Z"></path><path fill="#DC6027" d="M33.89,155a2,2,0,0,1-2-2v-6a2,2,0,0,1,4,0v6A2,2,0,0,1,33.89,155Z"></path><path fill="#DC6027" d="M48.55,155a2,2,0,0,1-2-2v-6a2,2,0,0,1,4,0v6A2,2,0,0,1,48.55,155Z"></path><path fill="#DC6027" d="M63.22,155a2,2,0,0,1-2-2v-6a2,2,0,0,1,4,0v6A2,2,0,0,1,63.22,155Z"></path><path fill="#DC6027" d="M77.89,155a2,2,0,0,1-2-2v-6a2,2,0,0,1,4,0v6A2,2,0,0,1,77.89,155Z"></path><path fill="#DC6027" d="M33.89,139a2,2,0,0,1-2-2v-6a2,2,0,0,1,4,0v6A2,2,0,0,1,33.89,139Z"></path><path fill="#DC6027" d="M48.55,139a2,2,0,0,1-2-2v-6a2,2,0,0,1,4,0v6A2,2,0,0,1,48.55,139Z"></path><path fill="#DC6027" d="M63.22,139a2,2,0,0,1-2-2v-6a2,2,0,0,1,4,0v6A2,2,0,0,1,63.22,139Z"></path><path fill="#DC6027" d="M77.89,139a2,2,0,0,1-2-2v-6a2,2,0,0,1,4,0v6A2,2,0,0,1,77.89,139Z"></path><path fill="#DC6027" d="M177.89,123a2,2,0,0,1-2-2v-6a2,2,0,0,1,4,0v6A2,2,0,0,1,177.89,123Z"></path><path fill="#DC6027" d="M192.55,123a2,2,0,0,1-2-2v-6a2,2,0,0,1,4,0v6A2,2,0,0,1,192.55,123Z"></path><path fill="#DC6027" d="M207.22,123a2,2,0,0,1-2-2v-6a2,2,0,0,1,4,0v6A2,2,0,0,1,207.22,123Z"></path><path fill="#DC6027" d="M221.89,123a2,2,0,0,1-2-2v-6a2,2,0,0,1,4,0v6A2,2,0,0,1,221.89,123Z"></path><path fill="#DC6027" d="M177.89,155a2,2,0,0,1-2-2v-6a2,2,0,0,1,4,0v6A2,2,0,0,1,177.89,155Z"></path><path fill="#DC6027" d="M192.55,155a2,2,0,0,1-2-2v-6a2,2,0,0,1,4,0v6A2,2,0,0,1,192.55,155Z"></path><path fill="#DC6027" d="M207.22,155a2,2,0,0,1-2-2v-6a2,2,0,0,1,4,0v6A2,2,0,0,1,207.22,155Z"></path><path fill="#DC6027" d="M221.89,155a2,2,0,0,1-2-2v-6a2,2,0,0,1,4,0v6A2,2,0,0,1,221.89,155Z"></path><path fill="#DC6027" d="M177.89,139a2,2,0,0,1-2-2v-6a2,2,0,0,1,4,0v6A2,2,0,0,1,177.89,139Z"></path><path fill="#DC6027" d="M192.55,139a2,2,0,0,1-2-2v-6a2,2,0,0,1,4,0v6A2,2,0,0,1,192.55,139Z"></path><path fill="#DC6027" d="M207.22,139a2,2,0,0,1-2-2v-6a2,2,0,0,1,4,0v6A2,2,0,0,1,207.22,139Z"></path><path fill="#DC6027" d="M221.89,139a2,2,0,0,1-2-2v-6a2,2,0,0,1,4,0v6A2,2,0,0,1,221.89,139Z"></path></svg>